<?xml version="1.0" encoding="utf-8"?>
<!-- Generator: Adobe Illustrator 16.0.0, SVG Export Plug-In . SVG Version: 6.00 Build 0)  -->
<!DOCTYPE svg PUBLIC "-//W3C//DTD SVG 1.1//EN" "http://www.w3.org/Graphics/SVG/1.1/DTD/svg11.dtd">
<svg version="1.1" id="Layer_1" xmlns="http://www.w3.org/2000/svg" xmlns:xlink="http://www.w3.org/1999/xlink" x="0px" y="0px"
	 width="20px" height="20px" viewBox="0 0 20 20" enable-background="new 0 0 20 20" xml:space="preserve">
<path fill="#FFFFFF" d="M13.5,12h-0.79l-0.28-0.27C13.41,10.59,14,9.11,14,7.5C14,3.91,11.09,1,7.5,1S1,3.91,1,7.5S3.91,14,7.5,14
	c1.61,0,3.09-0.59,4.23-1.57L12,12.71v0.79l5,4.99L18.49,17L13.5,12z M7.5,12C5.01,12,3,9.99,3,7.5S5.01,3,7.5,3S12,5.01,12,7.5
	S9.99,12,7.5,12z"/>
<path fill="none" d="M-2-2h24v24H-2V-2z"/>
</svg>
