<?xml version="1.0" encoding="utf-8"?>
<!-- Generator: Adobe Illustrator 16.0.0, SVG Export Plug-In . SVG Version: 6.00 Build 0)  -->
<!DOCTYPE svg PUBLIC "-//W3C//DTD SVG 1.1//EN" "http://www.w3.org/Graphics/SVG/1.1/DTD/svg11.dtd">
<svg version="1.1" xmlns="http://www.w3.org/2000/svg" xmlns:xlink="http://www.w3.org/1999/xlink" x="0px" y="0px" width="20px"
	 height="20px" viewBox="0 0 20 20" enable-background="new 0 0 20 20" xml:space="preserve">
<g id="Layer_1" display="none">
	<path display="inline" fill="#FFFFFF" d="M6,16c-1.1,0-1.99,0.9-1.99,2S4.9,20,6,20s2-0.9,2-2S7.1,16,6,16z M0,0v2h2l3.6,7.59
		l-1.35,2.45C4.09,12.32,4,12.65,4,13c0,1.1,0.9,2,2,2h12v-2H6.42c-0.14,0-0.25-0.109-0.25-0.25l0.03-0.12L7.1,11h7.45
		c0.75,0,1.41-0.41,1.75-1.03l3.58-6.49C19.96,3.34,20,3.17,20,3c0-0.55-0.45-1-1-1H4.21L3.27,0H0z M16,16c-1.1,0-1.99,0.9-1.99,2
		S14.9,20,16,20s2-0.9,2-2S17.1,16,16,16z"/>
</g>
<g id="Layer_2">
	<path fill="#FFFFFF" d="M16,14.08c-0.76,0-1.439,0.3-1.96,0.77L6.91,10.7C6.96,10.47,7,10.24,7,10S6.96,9.53,6.91,9.3l7.05-4.11
		C14.5,5.69,15.21,6,16,6c1.66,0,3-1.34,3-3s-1.34-3-3-3s-3,1.34-3,3c0,0.24,0.04,0.47,0.09,0.7L6.04,7.81C5.5,7.31,4.79,7,4,7
		c-1.66,0-3,1.34-3,3s1.34,3,3,3c0.79,0,1.5-0.311,2.04-0.811l7.12,4.16c-0.051,0.211-0.08,0.43-0.08,0.649
		c0,1.608,1.311,2.92,2.92,2.92s2.92-1.312,2.92-2.92S17.609,14.08,16,14.08z"/>
</g>
</svg>
