<?xml version="1.0" encoding="utf-8"?>
<!-- Generator: Adobe Illustrator 16.0.0, SVG Export Plug-In . SVG Version: 6.00 Build 0)  -->
<!DOCTYPE svg PUBLIC "-//W3C//DTD SVG 1.1//EN" "http://www.w3.org/Graphics/SVG/1.1/DTD/svg11.dtd">
<svg version="1.1" id="Layer_1" xmlns="http://www.w3.org/2000/svg" xmlns:xlink="http://www.w3.org/1999/xlink" x="0px" y="0px"
	 width="20px" height="20px" viewBox="0 0 20 20" enable-background="new 0 0 20 20" xml:space="preserve">
<rect x="33" y="-9" fill-rule="evenodd" clip-rule="evenodd" fill="#FFFFFF" width="56.333" height="52.667"/>
<g>
	<path fill-rule="evenodd" clip-rule="evenodd" fill="#5C5C5C" d="M76.059,17.414c-0.171,0.303-0.424,0.397-0.771,0.396
		c-3.715-0.01-7.428-0.006-11.142-0.007c-0.104,0-0.21,0.005-0.311-0.017c-0.234-0.05-0.412-0.272-0.43-0.516
		c-0.016-0.256,0.137-0.498,0.381-0.574c0.112-0.034,0.236-0.041,0.354-0.041c3.723-0.003,7.444,0.001,11.166-0.006
		c0.35-0.001,0.602,0.106,0.752,0.428C76.059,17.19,76.059,17.302,76.059,17.414z"/>
	<path fill-rule="evenodd" clip-rule="evenodd" fill="#5C5C5C" d="M70.307,8.663c0,1.699,0.001,2.282-0.002,3.984
		c0,0.453-0.363,0.737-0.759,0.599c-0.233-0.082-0.36-0.255-0.386-0.5c-0.009-0.078-0.004-0.159-0.004-0.238c0-3.33,0-5.542,0-8.873
		c0-0.072,0.003-0.144-0.002-0.216c-0.008-0.141-0.078-0.167-0.188-0.087c-0.051,0.037-0.093,0.087-0.139,0.132
		c-1.072,1.074-2.143,2.149-3.216,3.222c-0.278,0.28-0.524,0.321-0.787,0.143c-0.296-0.2-0.353-0.553-0.133-0.833
		c0.05-0.063,0.106-0.12,0.162-0.177C66.273,4.379,67.691,2.94,69.11,1.5c0.423-0.428,0.794-0.43,1.215-0.005
		c1.445,1.457,2.89,2.915,4.334,4.375c0.354,0.357,0.316,0.786-0.082,0.994c-0.245,0.129-0.464,0.083-0.708-0.16
		c-0.91-0.909-1.817-1.821-2.727-2.731c-0.191-0.192-0.38-0.387-0.577-0.574c-0.053-0.05-0.132-0.072-0.198-0.106
		c-0.02,0.072-0.059,0.144-0.059,0.216c-0.003,1.566-0.002,3.131-0.002,4.698C70.307,8.359,70.307,8.511,70.307,8.663z"/>
</g>
<g>
	<path fill-rule="evenodd" clip-rule="evenodd" fill="#5C5C5C" d="M70.049,29.433c0,1.7-0.001,2.282,0.002,3.985
		c0,0.453,0.363,0.736,0.759,0.598c0.233-0.082,0.36-0.254,0.386-0.5c0.009-0.078,0.004-0.158,0.004-0.238c0-3.33,0-5.542,0-8.872
		c0-0.071-0.003-0.144,0.002-0.216c0.008-0.141,0.078-0.167,0.188-0.088c0.051,0.037,0.092,0.088,0.139,0.133
		c1.072,1.074,2.143,2.148,3.216,3.22c0.278,0.28,0.524,0.322,0.787,0.144c0.296-0.2,0.353-0.554,0.133-0.833
		c-0.05-0.063-0.106-0.119-0.162-0.176c-1.419-1.438-2.837-2.878-4.256-4.317c-0.423-0.428-0.794-0.43-1.215-0.006
		c-1.445,1.457-2.89,2.916-4.335,4.375c-0.354,0.356-0.316,0.786,0.082,0.994c0.246,0.129,0.465,0.083,0.709-0.16
		c0.91-0.909,1.817-1.82,2.727-2.73c0.191-0.191,0.38-0.387,0.577-0.573c0.053-0.05,0.132-0.072,0.198-0.106
		c0.02,0.072,0.059,0.145,0.059,0.217c0.003,1.566,0.002,3.13,0.002,4.696C70.049,29.129,70.049,29.28,70.049,29.433z"/>
</g>
<path fill="#5C5C5C" d="M56.742,17.525c-0.053-0.172-0.151-0.336-0.254-0.489c-0.884-1.314-1.768-2.63-2.649-3.946
	c0.02-0.01,0.035-0.023,0.055-0.032c1.332-1.228,2.119-2.729,2.265-4.546c0.149-1.872-0.399-3.535-1.606-4.967
	c-2.17-2.578-5.935-3.178-8.777-1.417c-2.895,1.795-4.056,5.396-2.729,8.474c0.675,1.566,1.766,2.754,3.302,3.494
	c2,0.963,4.011,0.899,6.016-0.014c0.884,1.313,1.767,2.626,2.65,3.938c0.089,0.132,0.174,0.271,0.29,0.382
	c0.263,0.26,0.703,0.295,1.03,0.106C56.676,18.312,56.856,17.905,56.742,17.525z M48.302,13.065
	c-2.791-0.565-4.616-3.323-4.045-6.109c0.571-2.785,3.315-4.603,6.101-4.037c2.783,0.563,4.606,3.308,4.047,6.092
	C53.847,11.803,51.092,13.632,48.302,13.065z"/>
<g>
	<path fill-rule="evenodd" clip-rule="evenodd" fill="#5C5C5C" d="M60.13,27.905c-0.188,0.499-0.529,0.901-0.85,1.312
		c-1.328,1.7-2.963,3.009-4.967,3.834c-1.369,0.563-2.793,0.82-4.271,0.71c-1.924-0.144-3.654-0.825-5.23-1.92
		c-1.331-0.928-2.43-2.081-3.33-3.429c-0.053-0.078-0.105-0.157-0.16-0.234c-0.169-0.24-0.18-0.405-0.023-0.648
		c1.197-1.859,2.729-3.369,4.688-4.422c1.299-0.698,2.681-1.122,4.159-1.209c0.043-0.002,0.086-0.018,0.129-0.026
		c0.29,0,0.581,0,0.871,0c0.055,0.009,0.109,0.023,0.164,0.026c0.823,0.042,1.629,0.188,2.416,0.43
		c2.09,0.647,3.795,1.858,5.17,3.545c0.479,0.587,0.939,1.189,1.234,1.898C60.13,27.816,60.13,27.861,60.13,27.905z M50.902,22.924
		c-0.888,0.002-1.607,0.084-2.312,0.275c-2.642,0.717-4.649,2.302-6.187,4.528c-0.053,0.076-0.054,0.13,0,0.206
		c1.102,1.567,2.47,2.836,4.19,3.695c2.224,1.11,4.528,1.349,6.896,0.526c2.285-0.796,4.043-2.281,5.418-4.245
		c0.029-0.04,0.018-0.142-0.014-0.185c-0.432-0.568-0.832-1.166-1.314-1.688C55.741,24.05,53.477,22.963,50.902,22.924z"/>
	<path fill-rule="evenodd" clip-rule="evenodd" fill="#5C5C5C" d="M54.099,27.853c-0.014,1.923-1.533,3.427-3.452,3.415
		c-1.938-0.012-3.439-1.527-3.426-3.457c0.014-1.867,1.598-3.431,3.461-3.42C52.552,24.402,54.11,25.981,54.099,27.853z
		 M53.052,27.878c0.01-1.304-1.07-2.409-2.363-2.419c-1.309-0.01-2.41,1.074-2.421,2.382c-0.012,1.296,1.074,2.395,2.378,2.406
		C51.993,30.259,53.044,29.226,53.052,27.878z"/>
</g>
<g>
	<path fill="#5C5C5C" d="M84.057,7.934c0.188-0.188,0.188-0.494,0-0.684L81.43,4.619c-0.189-0.189-0.496-0.189-0.685,0l-2.628,2.63
		c-0.192,0.186-0.197,0.492-0.013,0.684c0.186,0.192,0.492,0.198,0.685,0.012c0.003-0.003,0.008-0.007,0.012-0.012l2.286-2.287
		l2.285,2.287C83.561,8.122,83.867,8.123,84.057,7.934z"/>
	<path fill="#5C5C5C" d="M83.372,9.569l-2.285,2.287l-2.286-2.287c-0.004-0.005-0.009-0.009-0.012-0.013
		c-0.192-0.186-0.499-0.181-0.685,0.013c-0.185,0.191-0.18,0.498,0.013,0.683l2.628,2.631c0.188,0.188,0.495,0.188,0.685,0
		l2.627-2.631c0.188-0.189,0.188-0.495,0-0.685C83.867,9.379,83.561,9.38,83.372,9.569z"/>
</g>
<path fill="#5C5C5C" d="M-20.673,2.982h-4.219v-0.8c0-0.528-0.429-0.957-0.955-0.957h-2.656c-0.526,0-0.956,0.429-0.956,0.957v0.8
	h-4.217c-0.429,0-0.762,0.352-0.762,0.762v1.522c0,0.43,0.352,0.761,0.762,0.761h0.391v11.42c0,0.743,0.586,1.327,1.327,1.327h9.585
	c0.722,0,1.327-0.605,1.327-1.327v-11.4h0.392c0.429,0,0.76-0.351,0.76-0.761V3.764C-19.914,3.334-20.264,2.982-20.673,2.982z
	 M-28.699,2.183c0-0.098,0.079-0.195,0.195-0.195h2.675c0.098,0,0.195,0.077,0.195,0.195v0.8h-3.065V2.183z M-21.827,17.466
	c0,0.314-0.254,0.567-0.565,0.567h-9.566c-0.313,0-0.566-0.253-0.566-0.567V6.047h10.698V17.466z M-20.673,5.286h-13.003V3.764
	h12.983v1.522H-20.673z M-30.417,16.511V7.336c0-0.215,0.176-0.391,0.391-0.391s0.391,0.176,0.391,0.391v9.175
	c0,0.214-0.176,0.391-0.391,0.391C-30.259,16.883-30.417,16.706-30.417,16.511z M-27.566,16.511V7.336
	c0-0.215,0.176-0.391,0.391-0.391c0.214,0,0.39,0.176,0.39,0.391v9.175c0,0.214-0.176,0.391-0.39,0.391
	C-27.39,16.901-27.566,16.706-27.566,16.511z M-24.697,16.511V7.336c0-0.215,0.177-0.391,0.392-0.391c0.214,0,0.39,0.176,0.39,0.391
	v9.175c0,0.214-0.176,0.391-0.39,0.391C-24.52,16.883-24.697,16.706-24.697,16.511z"/>
<path fill="#5D5D5D" d="M4.906,7.432l4.807,5.8c0.091,0.102,0.2,0.152,0.326,0.152c0.118,0,0.222-0.051,0.313-0.152l4.752-5.8
	c0.117-0.161,0.142-0.337,0.068-0.528c-0.072-0.191-0.203-0.287-0.395-0.287h-3.855H9.077H5.219c-0.182,0-0.313,0.096-0.395,0.287
	C4.752,7.095,4.779,7.271,4.906,7.432z"/>
<g>
	<path fill-rule="evenodd" clip-rule="evenodd" fill="#5C5C5C" d="M-35.975-37.756c-0.03-0.027-0.067-0.049-0.09-0.08
		c-0.971-1.348-2.274-2.172-3.913-2.445c-0.405-0.07-0.825-0.057-1.239-0.082c-0.014,0-0.028,0.006-0.054,0.01
		c0,0.865,0,1.729,0,2.572c-1.453-1.453-2.909-2.91-4.357-4.358c1.435-1.434,2.891-2.891,4.354-4.354c0,0.865,0,1.73,0,2.589
		c0.29,0.03,0.567,0.046,0.841,0.088c2.12,0.328,3.851,1.952,4.313,4.052c0.07,0.322,0.086,0.658,0.127,0.988
		c0.007,0.057,0.013,0.115,0.019,0.174C-35.975-38.32-35.975-38.039-35.975-37.756z"/>
	<path fill-rule="evenodd" clip-rule="evenodd" fill="#5C5C5C" d="M-43.914-46.491c0,0.031,0,0.069,0,0.106
		c0,0.372-0.003,0.743,0.002,1.115c0.001,0.097-0.025,0.166-0.095,0.236c-0.941,0.935-1.878,1.874-2.816,2.812
		c-0.03,0.03-0.07,0.048-0.112,0.077c0.053,0.056,0.08,0.087,0.109,0.116c0.944,0.944,1.887,1.887,2.831,2.829
		c0.058,0.057,0.083,0.111,0.082,0.193c-0.003,0.418-0.001,0.836-0.001,1.238c-1.454-1.455-2.912-2.914-4.361-4.361
		C-46.835-43.571-45.376-45.029-43.914-46.491z"/>
</g>
</svg>
