<?xml version="1.0" encoding="utf-8"?>
<!-- Generator: Adobe Illustrator 16.0.0, SVG Export Plug-In . SVG Version: 6.00 Build 0)  -->
<!DOCTYPE svg PUBLIC "-//W3C//DTD SVG 1.1//EN" "http://www.w3.org/Graphics/SVG/1.1/DTD/svg11.dtd">
<svg version="1.1" id="Layer_1" xmlns="http://www.w3.org/2000/svg" xmlns:xlink="http://www.w3.org/1999/xlink" x="0px" y="0px"
	 width="30px" height="20px" viewBox="0 0 30 20" enable-background="new 0 0 30 20" xml:space="preserve">
<g>
	<g>
		<path fill-rule="evenodd" clip-rule="evenodd" fill="#5C5C5C" d="M11.43,5.158c1.7,0,12.288-0.001,13.992,0.002
			c0.453,0,0.736,0.363,0.598,0.759c-0.082,0.233-0.254,0.36-0.5,0.386c-0.078,0.009-0.158,0.004-0.238,0.004
			c-3.331,0-15.549,0-18.88,0c-0.071,0-0.144-0.003-0.216,0.002C6.045,6.318,6.019,6.389,6.098,6.498
			C6.135,6.549,6.186,6.591,6.23,6.637c1.074,1.072,2.148,2.143,3.221,3.216c0.281,0.278,0.322,0.524,0.145,0.788
			c-0.201,0.295-0.555,0.352-0.834,0.133c-0.063-0.051-0.119-0.107-0.176-0.162c-1.439-1.42-2.879-2.838-4.318-4.257
			C3.84,5.932,3.838,5.561,4.262,5.14c1.457-1.445,2.916-2.889,4.377-4.334c0.355-0.354,0.785-0.316,0.994,0.082
			c0.129,0.246,0.082,0.465-0.16,0.709C8.563,2.507,7.65,3.413,6.74,4.322c-0.191,0.191-0.387,0.38-0.573,0.577
			c-0.05,0.053-0.072,0.132-0.106,0.198c0.072,0.02,0.145,0.059,0.217,0.059c1.566,0.003,3.131,0.002,4.697,0.002
			C11.127,5.158,11.277,5.158,11.43,5.158z"/>
	</g>
	<g>
		<path fill-rule="evenodd" clip-rule="evenodd" fill="#5C5C5C" d="M18.57,13.69c-1.699,0-12.288-0.001-13.992,0.002
			c-0.453,0-0.736,0.363-0.598,0.759c0.082,0.233,0.254,0.36,0.5,0.386c0.078,0.009,0.158,0.004,0.238,0.004
			c3.331,0,15.548,0,18.88,0c0.07,0,0.143-0.003,0.215,0.002c0.141,0.008,0.168,0.078,0.088,0.188
			c-0.037,0.051-0.088,0.093-0.133,0.139c-1.074,1.072-2.148,2.143-3.221,3.216c-0.281,0.278-0.322,0.524-0.145,0.787
			c0.201,0.295,0.555,0.352,0.834,0.133c0.063-0.051,0.119-0.107,0.176-0.162c1.439-1.419,2.879-2.837,4.318-4.256
			c0.428-0.423,0.43-0.794,0.006-1.215c-1.457-1.445-2.916-2.89-4.377-4.335c-0.355-0.354-0.785-0.316-0.994,0.082
			c-0.129,0.246-0.082,0.465,0.16,0.709c0.91,0.91,1.822,1.817,2.732,2.727c0.191,0.191,0.387,0.38,0.574,0.577
			c0.049,0.053,0.072,0.132,0.105,0.198c-0.072,0.02-0.145,0.059-0.217,0.059c-1.566,0.003-3.131,0.002-4.697,0.002
			C18.873,13.69,18.723,13.69,18.57,13.69z"/>
	</g>
</g>
</svg>
