<?xml version="1.0" encoding="utf-8"?>
<!-- Generator: Adobe Illustrator 16.0.0, SVG Export Plug-In . SVG Version: 6.00 Build 0)  -->
<!DOCTYPE svg PUBLIC "-//W3C//DTD SVG 1.1//EN" "http://www.w3.org/Graphics/SVG/1.1/DTD/svg11.dtd">
<svg version="1.1" id="Layer_1" xmlns="http://www.w3.org/2000/svg" xmlns:xlink="http://www.w3.org/1999/xlink" x="0px" y="0px"
	 width="20px" height="20px" viewBox="0 0 20 20" enable-background="new 0 0 20 20" xml:space="preserve">
<path fill-rule="evenodd" clip-rule="evenodd" d="M-19.462,78.839c-0.704,1.26-1.762,1.655-3.206,1.651
	c-15.456-0.041-30.911-0.024-46.367-0.028c-0.431,0-0.873,0.019-1.29-0.069c-0.979-0.206-1.72-1.133-1.787-2.146
	c-0.07-1.062,0.563-2.074,1.584-2.389c0.464-0.144,0.979-0.173,1.471-0.173c15.488-0.009,30.978,0.004,46.466-0.025
	c1.456-0.003,2.508,0.446,3.128,1.783C-19.462,77.908-19.462,78.373-19.462,78.839z"/>
<path fill-rule="evenodd" clip-rule="evenodd" d="M-43.399,37.755c0,7.08,0.006,14.161-0.004,21.241
	c-0.003,1.89-1.516,3.072-3.159,2.494c-0.972-0.343-1.501-1.062-1.607-2.079c-0.035-0.329-0.013-0.664-0.013-0.996
	c0-13.862,0-27.724,0-41.586c0-0.299,0.01-0.599-0.008-0.896c-0.036-0.586-0.326-0.696-0.781-0.365
	c-0.213,0.155-0.387,0.363-0.575,0.551c-4.461,4.471-8.92,8.944-13.386,13.41c-1.16,1.16-2.184,1.331-3.277,0.593
	c-1.229-0.831-1.467-2.302-0.551-3.468c0.205-0.261,0.441-0.497,0.674-0.733c5.903-5.99,11.808-11.979,17.714-17.967
	c1.758-1.781,3.307-1.79,5.055-0.026c6.014,6.067,12.027,12.135,18.035,18.209c1.473,1.489,1.316,3.271-0.339,4.14
	c-1.024,0.538-1.93,0.347-2.947-0.669c-3.786-3.783-7.563-7.573-11.344-11.361c-0.798-0.8-1.583-1.614-2.404-2.391
	c-0.219-0.207-0.547-0.298-0.826-0.442c-0.084,0.301-0.242,0.601-0.243,0.902c-0.014,6.515-0.011,13.03-0.011,19.546
	C-43.399,36.492-43.399,37.123-43.399,37.755z"/>
<path fill="#5C5C5C" d="M16.992,17.525c-0.053-0.172-0.151-0.336-0.254-0.489c-0.884-1.314-1.768-2.63-2.649-3.946
	c0.02-0.01,0.035-0.023,0.055-0.032c1.332-1.228,2.119-2.729,2.265-4.546c0.149-1.872-0.399-3.535-1.606-4.967
	c-2.17-2.578-5.935-3.178-8.777-1.417C3.13,3.923,1.969,7.523,3.296,10.602c0.675,1.566,1.766,2.754,3.302,3.494
	c2,0.963,4.011,0.899,6.016-0.014c0.884,1.313,1.767,2.626,2.65,3.938c0.089,0.132,0.174,0.271,0.29,0.382
	c0.263,0.26,0.703,0.295,1.03,0.106C16.926,18.312,17.106,17.905,16.992,17.525z M8.552,13.065C5.761,12.5,3.936,9.742,4.507,6.956
	c0.571-2.785,3.315-4.603,6.101-4.037c2.783,0.563,4.606,3.308,4.047,6.092C14.097,11.803,11.342,13.632,8.552,13.065z"/>
</svg>
