<?xml version="1.0" encoding="utf-8"?>
<!-- Generator: Adobe Illustrator 16.0.0, SVG Export Plug-In . SVG Version: 6.00 Build 0)  -->
<!DOCTYPE svg PUBLIC "-//W3C//DTD SVG 1.1//EN" "http://www.w3.org/Graphics/SVG/1.1/DTD/svg11.dtd">
<svg version="1.1" id="Layer_1" xmlns="http://www.w3.org/2000/svg" xmlns:xlink="http://www.w3.org/1999/xlink" x="0px" y="0px"
	 width="20px" height="20px" viewBox="0 0 20 20" enable-background="new 0 0 20 20" xml:space="preserve">
<g transform="translate(0,-952.36218)">
	<path fill="#FFFFFF" d="M12.641,962.046l-4.751-7.249c-0.008-0.007-0.012-0.015-0.02-0.022c-0.182-0.189-0.48-0.196-0.67-0.016
		c-0.189,0.181-0.197,0.481-0.017,0.669l4.465,6.933l-4.465,6.932c-0.006,0.009-0.014,0.017-0.021,0.023
		c-0.167,0.201-0.142,0.5,0.06,0.668c0.199,0.168,0.5,0.142,0.667-0.058l4.751-7.25c0.07-0.079,0.111-0.18,0.118-0.286
		C12.768,962.265,12.725,962.141,12.641,962.046z"/>
</g>
</svg>
