<?xml version="1.0" encoding="utf-8"?>
<!-- Generator: Adobe Illustrator 16.0.0, SVG Export Plug-In . SVG Version: 6.00 Build 0)  -->
<!DOCTYPE svg PUBLIC "-//W3C//DTD SVG 1.1//EN" "http://www.w3.org/Graphics/SVG/1.1/DTD/svg11.dtd">
<svg version="1.1" id="Layer_1" xmlns="http://www.w3.org/2000/svg" xmlns:xlink="http://www.w3.org/1999/xlink" x="0px" y="0px"
	 width="28px" height="28px" viewBox="694.66 694.66 28 28" enable-background="new 694.66 694.66 28 28" xml:space="preserve">
<path fill="#FFFFFF" d="M706.998,722.66L706.998,722.66l-11.685-0.011c-0.355-0.001-0.643-0.288-0.643-0.643l-0.01-11.666
	c0-0.355,0.288-0.644,0.643-0.644l0,0c0.356,0,0.644,0.287,0.644,0.642l0.009,10.103l9.861-9.848c0.251-0.251,0.659-0.251,0.91,0
	c0.251,0.251,0.251,0.658,0,0.908l-9.876,9.862l10.147,0.011c0.355,0.001,0.644,0.289,0.643,0.644
	C707.642,722.373,707.353,722.66,706.998,722.66z M722.016,707.624c-0.354,0-0.644-0.287-0.644-0.642l-0.009-10.103l-9.861,9.848
	c-0.251,0.251-0.659,0.251-0.911,0c-0.25-0.251-0.25-0.657,0-0.909l9.877-9.861l-10.147-0.011c-0.354-0.001-0.644-0.288-0.644-0.644
	c0.002-0.354,0.289-0.643,0.645-0.643l0,0l11.686,0.012c0.355,0,0.643,0.288,0.643,0.643l0.01,11.666
	C722.66,707.336,722.373,707.624,722.016,707.624L722.016,707.624z"/>
</svg>
