<?xml version="1.0" encoding="utf-8"?>
<!-- Generator: Adobe Illustrator 16.0.0, SVG Export Plug-In . SVG Version: 6.00 Build 0)  -->
<!DOCTYPE svg PUBLIC "-//W3C//DTD SVG 1.1//EN" "http://www.w3.org/Graphics/SVG/1.1/DTD/svg11.dtd">
<svg version="1.1" id="Layer_1" xmlns="http://www.w3.org/2000/svg" xmlns:xlink="http://www.w3.org/1999/xlink" x="0px" y="0px"
	 width="28px" height="28px" viewBox="694.66 694.66 28 28" enable-background="new 694.66 694.66 28 28" xml:space="preserve">
<path fill="#FFFFFF" d="M706.999,722.66c-0.355,0-0.644-0.287-0.645-0.643l-0.009-10.102l-9.86,9.848c-0.251,0.25-0.659,0.25-0.91,0
	c-0.252-0.252-0.252-0.658,0-0.909l9.876-9.862l-10.147-0.01c-0.355,0-0.644-0.289-0.644-0.644c0.001-0.354,0.288-0.642,0.644-0.642
	h0.001l11.685,0.012c0.354,0,0.643,0.287,0.643,0.642l0.01,11.667C707.642,722.372,707.354,722.66,706.999,722.66L706.999,722.66z
	 M722.016,707.624L722.016,707.624l-11.686-0.011c-0.354,0-0.643-0.288-0.643-0.642l-0.011-11.667c0-0.355,0.289-0.643,0.644-0.644
	c0,0,0,0,0.001,0c0.355,0,0.644,0.288,0.644,0.643l0.009,10.102l9.861-9.847c0.251-0.251,0.659-0.251,0.91,0s0.251,0.658,0,0.909
	l-9.876,9.863l10.147,0.009c0.355,0,0.644,0.289,0.643,0.644C722.66,707.336,722.372,707.624,722.016,707.624z"/>
<text transform="matrix(1 0 0 1 141.7322 1303.9316)" font-family="'Arial-BoldMT'" font-size="56.6928">Created by H Alberto Gongora</text>
<text transform="matrix(1 0 0 1 141.7322 1360.627)" font-family="'Arial-BoldMT'" font-size="56.6928">from the Noun Project</text>
</svg>
