<?xml version="1.0" encoding="utf-8"?>
<!-- Generator: Adobe Illustrator 16.0.0, SVG Export Plug-In . SVG Version: 6.00 Build 0)  -->
<!DOCTYPE svg PUBLIC "-//W3C//DTD SVG 1.1//EN" "http://www.w3.org/Graphics/SVG/1.1/DTD/svg11.dtd">
<svg version="1.1" id="Layer_1" xmlns="http://www.w3.org/2000/svg" xmlns:xlink="http://www.w3.org/1999/xlink" x="0px" y="0px"
	 width="67px" height="67px" viewBox="0 0 67 67" enable-background="new 0 0 67 67" xml:space="preserve">
<g>
	<ellipse fill="#3EDA45" cx="33.501" cy="33.472" rx="33.501" ry="33.472"/>
	<ellipse fill="#47EA47" cx="33.616" cy="33.472" rx="30.316" ry="30.289"/>
	<linearGradient id="SVGID_1_" gradientUnits="userSpaceOnUse" x1="31.7549" y1="27.9512" x2="54.6461" y2="68.3473">
		<stop  offset="0.0503" style="stop-color:#34BF34"/>
		<stop  offset="0.068" style="stop-color:#33BB33;stop-opacity:0.9813"/>
		<stop  offset="0.4067" style="stop-color:#1D6B1D;stop-opacity:0.6247"/>
		<stop  offset="0.6855" style="stop-color:#0D310D;stop-opacity:0.3311"/>
		<stop  offset="0.8906" style="stop-color:#040E04;stop-opacity:0.1152"/>
		<stop  offset="1" style="stop-color:#000000;stop-opacity:0"/>
	</linearGradient>
	<path opacity="0.2" fill="url(#SVGID_1_)" d="M16.43,41.073l16.543,25.899c0,0,23.09,1.681,31.583-21.302L49.074,27.107
		l-2.242,0.107l-4.48-3.997l0.525,4.001l3.189,0.153l2.213,0.442l0.707,0.441l0.973,1.945l2.213,3.005l0.795,1.68l-0.176,2.121
		l-0.09,2.917l-0.088,0.973l-1.592,0.707l-0.885,1.326l-2.211,1.502l-1.416-0.177l-1.947-1.502l-0.354-0.707l-1.77-0.619
		l-2.654,0.089L32,41.338h-3.627c0,0,0.088,3.271-3.008,2.829c-3.097-0.442-3.273-2.033-3.273-2.033L16.43,41.073z"/>
	<g>
		<path fill-rule="evenodd" clip-rule="evenodd" fill="#FFFFFF" d="M25.303,45.188c-0.048,0-0.096,0-0.144,0
			c-0.045-0.014-0.09-0.037-0.136-0.041c-1.69-0.155-2.821-1.04-3.451-2.605c-0.039-0.098-0.224-0.189-0.344-0.192
			c-0.764-0.018-1.528-0.005-2.293-0.011c-1.646-0.012-2.808-1.182-2.809-2.832c-0.002-4.893-0.001-9.785,0-14.678
			c0.001-0.19,0.005-0.384,0.039-0.57c0.256-1.395,1.346-2.28,2.824-2.282c3.762-0.005,7.525-0.002,11.287-0.001
			c3.271,0,6.545-0.004,9.817,0.001c1.364,0.002,2.451,0.869,2.726,2.181c0.061,0.287,0.051,0.592,0.055,0.89
			c0.007,0.712,0.002,1.425,0.002,2.173c0.17,0,0.299,0,0.428,0c1.648,0,3.297,0.009,4.945-0.004c0.449-0.003,0.76,0.166,1.021,0.53
			c1.484,2.076,2.988,4.141,4.471,6.22c0.129,0.181,0.217,0.435,0.219,0.656c0.018,1.802,0.012,3.604,0.006,5.405
			c-0.004,1.324-0.943,2.286-2.266,2.305c-0.246,0.004-0.344,0.087-0.43,0.309c-0.52,1.319-1.48,2.134-2.867,2.439
			c-0.221,0.049-0.445,0.073-0.668,0.108c-0.049,0-0.096,0-0.145,0c-0.092-0.02-0.184-0.046-0.277-0.058
			c-1.563-0.19-2.641-1.021-3.23-2.472c-0.104-0.257-0.227-0.325-0.49-0.324c-4.764,0.008-9.527,0.009-14.291-0.001
			c-0.27,0-0.388,0.077-0.488,0.332c-0.504,1.276-1.435,2.079-2.775,2.395C25.797,45.116,25.548,45.146,25.303,45.188z
			 M41.129,40.621c0.015-0.093,0.025-0.128,0.025-0.162c0.001-5.251,0.004-10.501-0.001-15.752c-0.001-0.62-0.416-1.012-1.054-1.012
			c-7.058-0.002-14.116-0.002-21.174,0c-0.673,0-1.077,0.401-1.078,1.065c-0.002,4.928-0.002,9.856,0,14.784
			c0,0.669,0.397,1.067,1.068,1.074c0.741,0.007,1.481-0.007,2.221,0.007c0.235,0.004,0.318-0.075,0.38-0.304
			c0.451-1.683,1.968-2.853,3.681-2.863c1.719-0.012,3.26,1.135,3.722,2.807c0.082,0.295,0.198,0.362,0.482,0.361
			c3.786-0.01,7.572-0.006,11.358-0.006C40.877,40.621,40.994,40.621,41.129,40.621z M42.896,40.621
			c0.194,0,0.373-0.021,0.545,0.004c0.33,0.047,0.463-0.078,0.558-0.405c0.479-1.659,2.005-2.776,3.718-2.761
			c1.695,0.016,3.209,1.186,3.668,2.839c0.094,0.334,0.402,0.453,0.645,0.209c0.125-0.126,0.209-0.352,0.211-0.533
			c0.016-1.634,0.014-3.269,0.002-4.903c0-0.153-0.061-0.33-0.148-0.455c-1.299-1.813-2.609-3.618-3.906-5.434
			c-0.137-0.19-0.279-0.248-0.502-0.246c-1.48,0.008-2.961,0.003-4.442,0.003c-0.114,0-0.228,0.012-0.347,0.02
			C42.896,32.854,42.896,36.716,42.896,40.621z M25.191,43.431c1.168,0.027,2.125-0.887,2.167-2.069
			c0.041-1.153-0.899-2.15-2.058-2.183c-1.203-0.033-2.188,0.91-2.204,2.11C23.082,42.454,24.011,43.404,25.191,43.431z
			 M47.631,43.431c1.168,0.029,2.135-0.891,2.172-2.064c0.037-1.176-0.908-2.168-2.088-2.188c-1.189-0.021-2.148,0.911-2.168,2.105
			C45.527,42.451,46.449,43.402,47.631,43.431z"/>
		<path fill-rule="evenodd" clip-rule="evenodd" fill="#FFFFFF" d="M32.435,31.852c2.019,0.001,4.037-0.003,6.056,0.003
			c0.685,0.002,1.133,0.614,0.834,1.179c-0.118,0.222-0.405,0.366-0.638,0.508c-0.099,0.061-0.257,0.028-0.388,0.028
			c-3.941,0.002-7.882,0.002-11.823,0c-0.154-0.001-0.313-0.007-0.461-0.044c-0.405-0.102-0.667-0.474-0.638-0.879
			c0.031-0.425,0.356-0.768,0.787-0.786c0.453-0.02,0.908-0.008,1.361-0.009C29.162,31.852,30.798,31.852,32.435,31.852z"/>
		<path fill-rule="evenodd" clip-rule="evenodd" fill="#FFFFFF" d="M34.291,29.713c-1.361,0-2.722,0.002-4.083-0.001
			c-0.528-0.001-0.896-0.285-0.961-0.725c-0.081-0.538,0.298-0.985,0.864-0.989c1.074-0.01,2.148-0.004,3.223-0.004
			c1.719,0,3.438-0.003,5.157,0.003c0.714,0.002,1.136,0.656,0.816,1.251c-0.183,0.34-0.487,0.467-0.862,0.466
			C37.061,29.712,35.676,29.713,34.291,29.713z"/>
		<path fill-rule="evenodd" clip-rule="evenodd" fill="#FFFFFF" d="M47.348,35.508c-0.918,0-1.838,0.002-2.758-0.001
			c-0.714-0.002-1.037-0.314-1.039-1.016c-0.004-1.301-0.005-2.601,0-3.901c0.002-0.665,0.327-0.992,0.986-0.996
			c0.896-0.005,1.791,0.002,2.688-0.003c0.375-0.001,0.658,0.142,0.879,0.452c0.949,1.346,1.904,2.685,2.863,4.024
			c0.219,0.307,0.291,0.627,0.109,0.971c-0.18,0.341-0.486,0.471-0.861,0.47C49.26,35.506,48.305,35.508,47.348,35.508z
			 M45.295,31.313c0,0.855,0,1.647,0,2.442c1.113,0,2.199,0,3.338,0c-0.572-0.803-1.109-1.561-1.654-2.313
			c-0.041-0.06-0.131-0.122-0.197-0.123C46.293,31.309,45.807,31.313,45.295,31.313z"/>
	</g>
</g>
</svg>
