<?xml version="1.0" encoding="utf-8"?>
<!-- Generator: Adobe Illustrator 16.0.0, SVG Export Plug-In . SVG Version: 6.00 Build 0)  -->
<!DOCTYPE svg PUBLIC "-//W3C//DTD SVG 1.1//EN" "http://www.w3.org/Graphics/SVG/1.1/DTD/svg11.dtd">
<svg version="1.1" id="Layer_1" xmlns="http://www.w3.org/2000/svg" xmlns:xlink="http://www.w3.org/1999/xlink" x="0px" y="0px"
	 width="20px" height="20px" viewBox="0 0 20 20" enable-background="new 0 0 20 20" xml:space="preserve">
<g id="Layer_2">
	<path fill="#161A60" d="M16,14.08c-0.76,0-1.439,0.3-1.96,0.77L6.91,10.7C6.96,10.47,7,10.24,7,10S6.96,9.53,6.91,9.3l7.05-4.11
		C14.5,5.69,15.21,6,16,6c1.66,0,3-1.34,3-3s-1.34-3-3-3s-3,1.34-3,3c0,0.24,0.04,0.47,0.09,0.7L6.04,7.81C5.5,7.31,4.79,7,4,7
		c-1.66,0-3,1.34-3,3s1.34,3,3,3c0.79,0,1.5-0.311,2.04-0.811l7.12,4.16c-0.051,0.211-0.08,0.43-0.08,0.647
		c0,1.606,1.311,2.92,2.92,2.92s2.92-1.313,2.92-2.92S17.609,14.08,16,14.08z"/>
</g>
</svg>
