<?xml version="1.0" encoding="utf-8"?>
<!-- Generator: Adobe Illustrator 16.0.0, SVG Export Plug-In . SVG Version: 6.00 Build 0)  -->
<!DOCTYPE svg PUBLIC "-//W3C//DTD SVG 1.1//EN" "http://www.w3.org/Graphics/SVG/1.1/DTD/svg11.dtd">
<svg version="1.1" id="Layer_1" xmlns="http://www.w3.org/2000/svg" xmlns:xlink="http://www.w3.org/1999/xlink" x="0px" y="0px"
	 width="20px" height="20px" viewBox="0 0 20 20" enable-background="new 0 0 20 20" xml:space="preserve">
<path fill-rule="evenodd" clip-rule="evenodd" fill="#5C5C5C" d="M16.371,17.602c-0.171,0.303-0.424,0.397-0.771,0.396
	c-3.715-0.01-7.428-0.006-11.142-0.007c-0.104,0-0.21,0.005-0.31-0.017c-0.235-0.05-0.413-0.272-0.43-0.516
	c-0.016-0.256,0.136-0.498,0.381-0.574c0.112-0.034,0.235-0.041,0.354-0.041c3.722-0.003,7.444,0.001,11.166-0.006
	c0.35-0.001,0.602,0.106,0.752,0.428C16.371,17.378,16.371,17.489,16.371,17.602z"/>
<path fill-rule="evenodd" clip-rule="evenodd" fill="#5C5C5C" d="M10.619,8.85c0,1.699,0.001,2.282-0.001,3.984
	c-0.001,0.453-0.364,0.737-0.759,0.599c-0.233-0.082-0.361-0.255-0.386-0.5c-0.009-0.078-0.003-0.159-0.003-0.238
	c0-3.33,0-5.542,0-8.873c0-0.072,0.002-0.144-0.002-0.216C9.458,3.465,9.389,3.439,9.279,3.519C9.228,3.556,9.187,3.606,9.141,3.65
	C8.069,4.725,6.998,5.799,5.925,6.872C5.646,7.152,5.4,7.193,5.138,7.015c-0.295-0.2-0.353-0.553-0.133-0.833
	c0.049-0.063,0.106-0.12,0.162-0.177c1.418-1.439,2.837-2.878,4.256-4.318c0.423-0.428,0.794-0.43,1.215-0.005
	c1.445,1.457,2.89,2.915,4.334,4.375c0.354,0.357,0.316,0.786-0.082,0.994c-0.245,0.129-0.464,0.083-0.708-0.16
	c-0.91-0.909-1.817-1.821-2.727-2.731c-0.191-0.192-0.38-0.387-0.577-0.574c-0.053-0.05-0.132-0.072-0.198-0.106
	c-0.02,0.072-0.059,0.144-0.059,0.216c-0.003,1.566-0.002,3.131-0.002,4.698C10.619,8.546,10.619,8.698,10.619,8.85z"/>
<path fill="#5C5C5C" d="M56.742,17.525c-0.053-0.172-0.151-0.336-0.254-0.489c-0.884-1.314-1.768-2.63-2.649-3.946
	c0.02-0.01,0.035-0.023,0.055-0.032c1.332-1.228,2.119-2.729,2.265-4.546c0.149-1.872-0.399-3.535-1.606-4.967
	c-2.17-2.578-5.935-3.178-8.777-1.417c-2.895,1.795-4.056,5.396-2.729,8.474c0.675,1.566,1.766,2.754,3.302,3.494
	c2,0.963,4.011,0.899,6.016-0.014c0.884,1.313,1.767,2.626,2.65,3.938c0.089,0.132,0.174,0.271,0.29,0.382
	c0.263,0.26,0.703,0.295,1.03,0.106C56.676,18.312,56.856,17.905,56.742,17.525z M48.302,13.065
	c-2.791-0.565-4.616-3.323-4.045-6.109c0.571-2.785,3.315-4.603,6.101-4.037c2.783,0.563,4.606,3.308,4.047,6.092
	C53.847,11.803,51.092,13.632,48.302,13.065z"/>
</svg>
