<?xml version="1.0" encoding="utf-8"?>
<!-- Generator: Adobe Illustrator 16.0.0, SVG Export Plug-In . SVG Version: 6.00 Build 0)  -->
<!DOCTYPE svg PUBLIC "-//W3C//DTD SVG 1.1//EN" "http://www.w3.org/Graphics/SVG/1.1/DTD/svg11.dtd">
<svg version="1.1" id="Layer_1" xmlns="http://www.w3.org/2000/svg" xmlns:xlink="http://www.w3.org/1999/xlink" x="0px" y="0px"
	 width="20px" height="20px" viewBox="0 0 20 20" enable-background="new 0 0 20 20" xml:space="preserve">
<path fill="#5C5C5C" d="M16.931,10c0,3.828-3.104,6.931-6.932,6.931C6.497,16.93,3.544,14.316,3.12,10.84
	c-0.039-0.316,0.188-0.605,0.503-0.643c0.316-0.038,0.604,0.188,0.643,0.504l0,0c0.374,3.182,3.255,5.457,6.437,5.084
	c3.181-0.373,5.457-3.256,5.083-6.437c-0.373-3.181-3.255-5.458-6.437-5.084C7.458,4.486,5.796,5.623,4.903,7.305h1.824
	c0.318,0,0.577,0.258,0.577,0.577S7.046,8.46,6.728,8.46H4.417C3.673,8.459,3.07,7.856,3.069,7.113V4.802
	c0-0.319,0.258-0.578,0.578-0.578c0.319,0,0.578,0.259,0.578,0.578v1.392c2.096-3.196,6.385-4.087,9.58-1.991
	C15.759,5.484,16.935,7.664,16.931,10z"/>
</svg>
