<?xml version="1.0" encoding="utf-8"?>
<!-- Generator: Adobe Illustrator 16.0.0, SVG Export Plug-In . SVG Version: 6.00 Build 0)  -->
<!DOCTYPE svg PUBLIC "-//W3C//DTD SVG 1.1//EN" "http://www.w3.org/Graphics/SVG/1.1/DTD/svg11.dtd">
<svg version="1.1" id="Layer_1" xmlns="http://www.w3.org/2000/svg" xmlns:xlink="http://www.w3.org/1999/xlink" x="0px" y="0px"
	 width="20px" height="20px" viewBox="0 0 20 20" enable-background="new 0 0 20 20" xml:space="preserve">
<g transform="translate(0,-952.36218)">
	<path fill="#FFFFFF" d="M7.054,962.392c0.007,0.105,0.048,0.207,0.118,0.286l4.751,7.25c0.167,0.199,0.468,0.226,0.667,0.058
		c0.201-0.168,0.227-0.467,0.06-0.668c-0.007-0.007-0.015-0.015-0.021-0.023l-4.465-6.932l4.465-6.933
		c0.181-0.188,0.173-0.489-0.017-0.669c-0.189-0.18-0.488-0.174-0.67,0.016c-0.008,0.007-0.012,0.015-0.02,0.022l-4.751,7.249
		C7.088,962.141,7.045,962.265,7.054,962.392z"/>
</g>
</svg>
