<?xml version="1.0" encoding="utf-8"?>
<!-- Generator: Adobe Illustrator 16.0.0, SVG Export Plug-In . SVG Version: 6.00 Build 0)  -->
<!DOCTYPE svg PUBLIC "-//W3C//DTD SVG 1.1//EN" "http://www.w3.org/Graphics/SVG/1.1/DTD/svg11.dtd">
<svg version="1.1" id="Layer_1" xmlns="http://www.w3.org/2000/svg" xmlns:xlink="http://www.w3.org/1999/xlink" x="0px" y="0px"
	 width="20px" height="20px" viewBox="0 0 20 20" enable-background="new 0 0 20 20" xml:space="preserve">
<path fill="#5C5C5C" d="M16.047,3.465h-3.93V2.72c0-0.492-0.398-0.891-0.889-0.891H8.754c-0.49,0-0.89,0.399-0.89,0.891v0.745H3.938
	c-0.399,0-0.709,0.328-0.709,0.709v1.418c0,0.4,0.327,0.708,0.709,0.708h0.364v10.636c0,0.69,0.545,1.234,1.236,1.234h8.926
	c0.672,0,1.236-0.563,1.236-1.234V6.319h0.364c0.398,0,0.707-0.327,0.707-0.708V4.192C16.754,3.792,16.428,3.465,16.047,3.465z
	 M8.573,2.72c0-0.091,0.074-0.182,0.182-0.182h2.492c0.092,0,0.183,0.072,0.183,0.182v0.745H8.573V2.72z M14.973,16.952
	c0,0.293-0.236,0.528-0.527,0.528H5.537c-0.291,0-0.527-0.235-0.527-0.528V6.319h9.963V16.952z M16.047,5.61H3.938V4.192h12.089
	V5.61H16.047z M6.973,16.063V7.519c0-0.2,0.164-0.364,0.364-0.364c0.2,0,0.364,0.164,0.364,0.364v8.543
	c0,0.199-0.164,0.363-0.364,0.363C7.12,16.409,6.973,16.245,6.973,16.063z M9.627,16.063V7.519c0-0.2,0.164-0.364,0.364-0.364
	c0.2,0,0.363,0.164,0.363,0.364v8.543c0,0.199-0.163,0.363-0.363,0.363C9.791,16.427,9.627,16.245,9.627,16.063z M12.299,16.063
	V7.519c0-0.2,0.166-0.364,0.365-0.364s0.363,0.164,0.363,0.364v8.543c0,0.199-0.164,0.363-0.363,0.363
	C12.465,16.409,12.299,16.245,12.299,16.063z"/>
</svg>
