<?xml version="1.0" encoding="utf-8"?>
<!-- Generator: Adobe Illustrator 16.0.0, SVG Export Plug-In . SVG Version: 6.00 Build 0)  -->
<!DOCTYPE svg PUBLIC "-//W3C//DTD SVG 1.1//EN" "http://www.w3.org/Graphics/SVG/1.1/DTD/svg11.dtd">
<svg version="1.1" id="Layer_1" xmlns="http://www.w3.org/2000/svg" xmlns:xlink="http://www.w3.org/1999/xlink" x="0px" y="0px"
	 width="61px" height="68px" viewBox="0 0 61 68" enable-background="new 0 0 61 68" xml:space="preserve">
<path fill="#EA202A" d="M-30.047-73.073c-0.993,0.001-1.968,0.004-2.941,0.007l-0.022-9.557c0.974-0.003,1.948-0.006,2.939-0.007
	l0.008,3.142l9.925-0.023c0.002,1.085,0.005,2.17,0.008,3.253l-9.925,0.024L-30.047-73.073z"/>
<path fill="#EA202A" d="M-20.174-94.676c0.003,1.122,0.006,2.243,0.008,3.361L-25.33-91.3l0.01,3.967l5.165-0.013
	c0.001,1.123,0.006,2.261,0.009,3.365l-12.867,0.031c-0.003-1.104-0.006-2.243-0.008-3.362l4.669-0.013l-0.011-3.971l-4.668,0.015
	c-0.003-1.122-0.006-2.243-0.007-3.365L-20.174-94.676z"/>
<path fill="#EA202A" d="M-30.124-105.244c0.004,1.912,0.007,2.868,0.011,4.762l1.819-0.005l-0.01-4.375
	c0.974-0.002,1.948-0.005,2.923-0.007l0.01,4.375c0.754-0.002,1.488-0.003,2.26-0.006c-0.005-1.893-0.007-2.997-0.012-4.926
	c0.957-0.002,1.949-0.004,2.922-0.007c0.008,3.015,0.014,5.221,0.02,8.199c-4.299,0.01-8.601,0.021-12.866,0.031
	c-0.007-2.977-0.013-5.018-0.02-8.033C-32.109-105.239-31.117-105.242-30.124-105.244z"/>
<path fill="#FFFFFF" d="M-15.577-77.806l1.838-42.854h13.364l-4.292,36.272h0.165L9.862-120.66h13.364L2.856-77.806
	c-1.736,3.511-5.228,5.267-10.473,5.267C-13.124-72.539-15.778-74.295-15.577-77.806z"/>
<path fill="#FFFFFF" d="M8.948-77.806l21.485-42.854h15.768l-0.653,42.854c-0.003,3.511-2.223,5.267-6.654,5.267
	c-4.454,0-6.494-1.756-6.119-5.267l0.318-3.16h-9.97l-1.339,3.16c-1.407,3.511-4.338,5.267-8.792,5.267
	C8.558-72.539,7.212-74.295,8.948-77.806z M34.041-90.413l1.793-20.404h-0.131l-8.67,20.404H34.041z"/>
<path fill="#FFFFFF" d="M58.152-120.66h12.539l-8.921,34.691c-0.388,1.514-0.55,2.705-0.474,3.57
	c0.071,0.869,0.334,1.472,0.782,1.81c0.452,0.341,1.095,0.512,1.93,0.512c1.294,0,2.357-0.428,3.19-1.283
	c0.835-0.856,1.539-2.391,2.107-4.608l8.925-34.691h12.539l-8.108,31.53c-1.143,4.435-2.654,7.929-4.541,10.485
	c-1.885,2.555-4.162,4.371-6.83,5.448c-2.67,1.073-5.826,1.611-9.469,1.611c-3.621,0-6.488-0.538-8.604-1.611
	c-2.115-1.077-3.458-2.894-4.028-5.448c-0.571-2.557-0.286-6.051,0.852-10.485L58.152-120.66z"/>
<path fill="#FFFFFF" d="M85.146-77.806L96.17-120.66h12.539l-9.742,37.882h15.439l-1.28,4.973c-0.903,3.511-3.24,5.267-7.017,5.267
	H89.65C85.747-72.539,84.247-74.295,85.146-77.806z"/>
<path fill="#FFFFFF" d="M120.008-77.806l8.287-32.222h-9.447l2.734-10.633h31.402l-2.733,10.633h-9.414l-8.29,32.222
	c-0.899,3.511-3.437,5.267-7.607,5.267C120.729-72.539,119.084-74.295,120.008-77.806z"/>
<path fill="#EA202A" d="M149.903-73.365c-1.155,0-2.329,0-3.484,0l0.573-2.794h-6.398l0.334-1.637l7.96-10.268h4.028l-1.813,8.839
	h1.26c-0.211,1.029-0.427,2.081-0.627,3.065h-1.261L149.903-73.365z M145.415-79.225h2.351l0.455-2.204l0.733-2.248h-0.041
	L145.415-79.225z"/>
<path fill="#EA202A" d="M152.873-75.149c0.24-1.178,1.324-1.954,2.498-1.954c1.133,0,1.896,0.776,1.656,1.954
	c-0.236,1.154-1.314,1.91-2.448,1.91C153.403-73.239,152.637-73.995,152.873-75.149z"/>
<path fill="#EA202A" d="M170.593-83.275c-0.334,1.637-0.718,3.505-1.052,5.143c-0.659,3.213-3.516,5.063-6.56,5.063
	c-2.98,0-5.099-1.85-4.439-5.063c0.337-1.638,0.721-3.506,1.055-5.143c0.659-3.214,3.535-5.062,6.515-5.062
	C169.155-88.337,171.251-86.489,170.593-83.275z M166.008-78.216c0.323-1.574,0.698-3.401,1.026-4.998
	c0.235-1.154-0.498-1.764-1.608-1.764c-1.07,0-2.037,0.609-2.274,1.764c-0.325,1.597-0.701,3.424-1.023,4.998
	c-0.247,1.197,0.471,1.807,1.54,1.807C164.779-76.409,165.766-77.019,166.008-78.216z"/>
<path fill="#404041" d="M158.542-118.133l0.127-3.747h-1.339l0.025-0.763h3.584l-0.023,0.763h-1.336l-0.126,3.747H158.542z"/>
<path fill="#404041" d="M160.857-118.133l0.153-4.51h1.363l0.715,3.076l0.91-3.076h1.368l-0.152,4.51h-0.846l0.12-3.55l-1.016,3.55
	h-0.875l-0.775-3.55l-0.12,3.55H160.857z"/>
<g>
	<polygon fill="#404041" stroke="#404041" stroke-width="0.644" stroke-miterlimit="10" points="29.1,0.982 1.835,17.219 
		1.835,51.85 30.141,35.674 	"/>
	<polygon fill="#EA202A" stroke="#E8222C" stroke-width="0.644" stroke-miterlimit="10" points="29.669,0.982 30.545,35.206 
		59.028,51.295 59.028,16.663 	"/>
	<polygon fill="#58595B" stroke="#59595C" stroke-width="0.644" stroke-miterlimit="10" points="2.258,52.313 30.838,67.209 
		58.834,51.85 30.169,35.12 	"/>
	<polygon fill="#E6E7E8" points="22.031,39.725 30.141,45.117 38.385,39.725 30.169,34.617 	"/>
	<polygon fill="none" points="29.1,0.982 15.001,9.378 30.169,34.617 34.344,27.668 45.125,9.375 	"/>
	<polygon fill="#FFFFFF" points="45.383,8.935 45.125,9.375 45.287,9.462 34.344,27.668 30.141,34.795 38.385,39.725 53.116,13.14 	
		"/>
	<polygon fill="#FFFFFF" points="45.125,9.375 34.344,27.668 45.287,9.462 	"/>
	<polygon fill="#FFFFFF" points="7.183,13.643 22.031,39.725 30.141,34.795 14.631,9.198 	"/>
</g>
</svg>
