<?xml version="1.0" encoding="utf-8"?>
<!-- Generator: Adobe Illustrator 16.0.0, SVG Export Plug-In . SVG Version: 6.00 Build 0)  -->
<!DOCTYPE svg PUBLIC "-//W3C//DTD SVG 1.1//EN" "http://www.w3.org/Graphics/SVG/1.1/DTD/svg11.dtd">
<svg version="1.1" id="Layer_1" xmlns="http://www.w3.org/2000/svg" xmlns:xlink="http://www.w3.org/1999/xlink" x="0px" y="0px"
	 width="15px" height="15px" viewBox="0 0 15 15" enable-background="new 0 0 15 15" xml:space="preserve">
<path fill="#FFFFFF" d="M14.648,0.363c-0.442-0.442-1.158-0.442-1.6,0L7.5,5.9L1.952,0.352c-0.442-0.442-1.158-0.442-1.6,0
	c-0.442,0.442-0.442,1.158,0,1.6L5.9,7.5l-5.548,5.549c-0.442,0.441-0.442,1.157,0,1.6c0.442,0.441,1.158,0.441,1.6,0L7.5,9.1
	l5.549,5.549c0.441,0.441,1.157,0.441,1.6,0c0.441-0.442,0.441-1.158,0-1.6L9.1,7.5l5.549-5.548
	C15.079,1.521,15.079,0.794,14.648,0.363z"/>
</svg>
