<?xml version="1.0" encoding="utf-8"?>
<!-- Generator: Adobe Illustrator 16.0.0, SVG Export Plug-In . SVG Version: 6.00 Build 0)  -->
<!DOCTYPE svg PUBLIC "-//W3C//DTD SVG 1.1//EN" "http://www.w3.org/Graphics/SVG/1.1/DTD/svg11.dtd">
<svg version="1.1" id="Layer_1" xmlns="http://www.w3.org/2000/svg" xmlns:xlink="http://www.w3.org/1999/xlink" x="0px" y="0px"
	 width="15px" height="20px" viewBox="0 0 15 20" enable-background="new 0 0 15 20" xml:space="preserve">
<path fill="#FFFFFF" d="M1.5,17c0,1.1,0.9,2,2,2h8c1.1,0,2-0.9,2-2V7c0-1.1-0.9-2-2-2h-8c-1.1,0-2,0.9-2,2V17z M13.5,2H11
	l-0.71-0.71C10.109,1.11,9.85,1,9.59,1H5.41c-0.26,0-0.52,0.11-0.7,0.29L4,2H1.5c-0.55,0-1,0.45-1,1s0.45,1,1,1h12
	c0.55,0,1-0.45,1-1S14.05,2,13.5,2z"/>
</svg>
