<?xml version="1.0" encoding="utf-8"?>
<!-- Generator: Adobe Illustrator 16.0.0, SVG Export Plug-In . SVG Version: 6.00 Build 0)  -->
<!DOCTYPE svg PUBLIC "-//W3C//DTD SVG 1.1//EN" "http://www.w3.org/Graphics/SVG/1.1/DTD/svg11.dtd">
<svg version="1.1" id="Layer_1" xmlns="http://www.w3.org/2000/svg" xmlns:xlink="http://www.w3.org/1999/xlink" x="0px" y="0px"
	 width="20px" height="20px" viewBox="0 0 20 20" enable-background="new 0 0 20 20" xml:space="preserve">
<path fill="#212121" d="M6.084,16c-1.1,0-1.99,0.9-1.99,2s0.89,2,1.99,2s2-0.9,2-2S7.184,16,6.084,16z M0.084,1c0,0.55,0.45,1,1,1h1
	l3.6,7.59l-1.35,2.439C3.604,13.37,4.564,15,6.084,15h11c0.55,0,1-0.45,1-1s-0.45-1-1-1h-11l1.1-2h7.45c0.75,0,1.41-0.41,1.75-1.03
	l3.58-6.49c0.37-0.66-0.11-1.48-0.87-1.48h-14.8l-0.67-1.43C3.464,0.22,3.104,0,2.724,0h-1.64C0.534,0,0.084,0.45,0.084,1z
	 M16.084,16c-1.1,0-1.99,0.9-1.99,2s0.891,2,1.99,2s2-0.9,2-2S17.184,16,16.084,16z"/>
</svg>
