<?xml version="1.0" encoding="utf-8"?>
<!-- Generator: Adobe Illustrator 16.0.0, SVG Export Plug-In . SVG Version: 6.00 Build 0)  -->
<!DOCTYPE svg PUBLIC "-//W3C//DTD SVG 1.1//EN" "http://www.w3.org/Graphics/SVG/1.1/DTD/svg11.dtd">
<svg version="1.1" id="Layer_1" xmlns="http://www.w3.org/2000/svg" xmlns:xlink="http://www.w3.org/1999/xlink" x="0px" y="0px"
	 width="20px" height="20px" viewBox="0 0 20 20" enable-background="new 0 0 20 20" xml:space="preserve">
<path fill="#212121" d="M14.652,12.891h-0.924L13.4,12.575c1.403-1.637,2.129-3.871,1.731-6.246
	c-0.551-3.252-3.264-5.849-6.54-6.248C3.644-0.526-0.521,3.638,0.087,8.587c0.398,3.275,2.995,5.988,6.247,6.539
	c2.375,0.397,4.609-0.328,6.248-1.732l0.315,0.328v0.925l4.972,4.972c0.479,0.479,1.264,0.479,1.743,0
	c0.479-0.48,0.479-1.264,0-1.744L14.652,12.891z M7.633,12.891c-2.913,0-5.264-2.35-5.264-5.263S4.72,2.363,7.633,2.363
	s5.265,2.352,5.265,5.265S10.546,12.891,7.633,12.891z"/>
</svg>
