<?xml version="1.0" encoding="utf-8"?>
<!-- Generator: Adobe Illustrator 16.0.0, SVG Export Plug-In . SVG Version: 6.00 Build 0)  -->
<!DOCTYPE svg PUBLIC "-//W3C//DTD SVG 1.1//EN" "http://www.w3.org/Graphics/SVG/1.1/DTD/svg11.dtd">
<svg version="1.1" id="Layer_1" xmlns="http://www.w3.org/2000/svg" xmlns:xlink="http://www.w3.org/1999/xlink" x="0px" y="0px"
	 width="20px" height="15px" viewBox="0 0 20 15" enable-background="new 0 0 20 15" xml:space="preserve">
<path fill="#FFFFFF" d="M16.437,0.904C14.219-0.609,11.479,0.097,10,1.828C8.521,0.097,5.782-0.617,3.564,0.904
	C2.388,1.711,1.648,3.071,1.598,4.508c-0.118,3.26,2.772,5.873,7.185,9.882l0.084,0.075c0.639,0.579,1.622,0.579,2.26-0.008
	l0.093-0.085c4.412-4,7.294-6.612,7.184-9.873C18.352,3.071,17.613,1.711,16.437,0.904z M10.084,13.139L10,13.222l-0.084-0.083
	c-4-3.622-6.638-6.017-6.638-8.445c0-1.681,1.26-2.941,2.941-2.941c1.294,0,2.555,0.832,3,1.983h1.571
	c0.438-1.151,1.698-1.983,2.991-1.983c1.681,0,2.941,1.26,2.941,2.941C16.723,7.122,14.083,9.517,10.084,13.139z"/>
</svg>
