<?xml version="1.0" encoding="utf-8"?>
<!-- Generator: Adobe Illustrator 16.0.0, SVG Export Plug-In . SVG Version: 6.00 Build 0)  -->
<!DOCTYPE svg PUBLIC "-//W3C//DTD SVG 1.1//EN" "http://www.w3.org/Graphics/SVG/1.1/DTD/svg11.dtd">
<svg version="1.1" id="Layer_1" xmlns="http://www.w3.org/2000/svg" xmlns:xlink="http://www.w3.org/1999/xlink" x="0px" y="0px"
	 width="60px" height="40px" viewBox="0 0 60 40" enable-background="new 0 0 60 40" xml:space="preserve">
<g id="Layer_2">
	<g>
		<path fill="#515151" d="M41.475,16.812h-0.638v-5.735C40.837,5.101,35.975,0.24,30,0.24S19.164,5.101,19.164,11.076v5.736h-0.639
			c-1.757,0-3.187,1.43-3.187,3.188v8.924c0,5.975,4.861,10.836,10.836,10.836h7.649c5.975,0,10.837-4.861,10.837-10.836V20
			C44.661,18.242,43.23,16.812,41.475,16.812z M20.438,11.076c0-5.273,4.291-9.563,9.563-9.563s9.563,4.289,9.563,9.563v5.736
			H24.264h-3.826V11.076z M43.387,28.924c0,5.273-4.289,9.563-9.563,9.563h-7.649c-5.272,0-9.562-4.289-9.562-9.563V20
			c0-1.055,0.857-1.912,1.913-1.912h22.947c1.055,0,1.912,0.857,1.912,1.912v8.924H43.387z"/>
		<path fill="#515151" d="M30,24.461c-1.055,0-1.912,0.859-1.912,1.914c0,0.578,0.326,1.859,0.813,3.188
			c0.387,1.059,0.707,1.271,1.101,1.271c0.504,0,0.731-0.26,1.104-1.264c0.477-1.287,0.809-2.604,0.809-3.195
			C31.912,25.32,31.055,24.461,30,24.461z"/>
	</g>
</g>
</svg>
