<?xml version="1.0" encoding="utf-8"?>
<!-- Generator: Adobe Illustrator 16.0.0, SVG Export Plug-In . SVG Version: 6.00 Build 0)  -->
<!DOCTYPE svg PUBLIC "-//W3C//DTD SVG 1.1//EN" "http://www.w3.org/Graphics/SVG/1.1/DTD/svg11.dtd">
<svg version="1.1" id="Layer_1" xmlns="http://www.w3.org/2000/svg" xmlns:xlink="http://www.w3.org/1999/xlink" x="0px" y="0px"
	 width="60px" height="40px" viewBox="0 0 60 40" enable-background="new 0 0 60 40" xml:space="preserve">
<g id="Layer_3">
	<g>
		<path fill="#515151" d="M54.887,13.858h-4.729v-2.085c-0.004-2.389-1.949-4.335-4.338-4.338h-4.911V5.351
			c-0.007-2.386-1.95-4.327-4.335-4.33H4.959c-2.408,0-4.358,1.939-4.366,4.325v16.45c0.004,2.387,1.95,4.333,4.337,4.337h4.912
			v2.087c0.002,2.389,1.948,4.334,4.337,4.338h4.91v1.91c0.008,2.485,2.034,4.51,4.52,4.512h31.278
			c2.487-0.002,4.516-2.028,4.521-4.519V18.379C59.402,15.892,57.375,13.863,54.887,13.858z M9.842,25.172H4.93
			c-1.86-0.004-3.371-1.519-3.371-3.376V5.351c0.01-1.854,1.521-3.359,3.369-3.363h31.616c1.87,0,3.386,1.504,3.399,3.353v2.098
			H14.18c-2.389,0.003-4.335,1.949-4.337,4.338L9.842,25.172L9.842,25.172z M19.09,31.597h-4.91
			c-1.854-0.004-3.366-1.517-3.371-3.369V11.773c0.004-1.855,1.517-3.366,3.369-3.371h31.616c1.854,0.005,3.366,1.516,3.37,3.37
			v2.086H23.61c-2.488,0.005-4.516,2.032-4.52,4.521V31.597z M58.438,34.476c-0.008,1.951-1.602,3.539-3.551,3.539H23.61
			c-1.958,0-3.551-1.596-3.551-3.554v-8.065h38.38v8.08H58.438z M58.438,25.429H20.058v-4.173h38.379V25.429z M58.438,20.291H20.058
			v-1.912c0-1.959,1.593-3.554,3.551-3.554h31.278c1.959,0,3.551,1.595,3.551,3.554V20.291z"/>
		<path fill="#515151" d="M29.858,30.556h-6.429c-0.267,0-0.484,0.215-0.484,0.481s0.218,0.481,0.484,0.481h6.429
			c0.267,0,0.484-0.215,0.484-0.481C30.343,30.771,30.125,30.556,29.858,30.556z"/>
		<path fill="#515151" d="M36.928,30.556h-3.215c-0.268,0-0.48,0.215-0.48,0.481s0.215,0.481,0.48,0.481h3.215
			c0.268,0,0.482-0.215,0.482-0.481S37.193,30.556,36.928,30.556z"/>
	</g>
</g>
</svg>
