<?xml version="1.0" encoding="utf-8"?>
<!-- Generator: Adobe Illustrator 16.0.0, SVG Export Plug-In . SVG Version: 6.00 Build 0)  -->
<!DOCTYPE svg PUBLIC "-//W3C//DTD SVG 1.1//EN" "http://www.w3.org/Graphics/SVG/1.1/DTD/svg11.dtd">
<svg version="1.1" id="Layer_1" xmlns="http://www.w3.org/2000/svg" xmlns:xlink="http://www.w3.org/1999/xlink" x="0px" y="0px"
	 width="60px" height="40px" viewBox="0 0 60 40" enable-background="new 0 0 60 40" xml:space="preserve">
<g id="Layer_1_1_">
	<g>
		<path fill="#515151" d="M59.818,20.948l-7.047-9.256c-0.166-0.206-0.367-0.297-0.666-0.297l-6.346,0.077V5.048
			c0-0.413-0.26-0.702-0.632-0.702H16.65c-0.345,0-0.702,0.264-0.702,0.702v24.85c0,0.438,0.357,0.702,0.702,0.702h6.445
			l-0.029,0.535c-0.062,1.176,0.369,2.34,1.181,3.194c0.811,0.854,1.906,1.325,3.084,1.325c1.137,0,2.204-0.464,3.002-1.307
			c0.817-0.86,1.25-2.032,1.188-3.213L31.493,30.6h16.522l-0.029,0.535c-0.062,1.174,0.369,2.34,1.182,3.193
			c0.811,0.855,1.904,1.326,3.082,1.326c1.137,0,2.203-0.464,3.003-1.307c0.817-0.86,1.25-2.032,1.188-3.213L56.413,30.6h2.885
			C59.73,30.6,60,30.329,60,29.896v-8.473c0-0.291-0.061-0.36-0.061-0.361L59.818,20.948z M27.331,34.25
			c-1.643,0-2.93-1.255-2.93-2.857c0-1.576,1.314-2.858,2.93-2.858c1.549,0,2.858,1.31,2.858,2.858
			C30.188,32.995,28.934,34.25,27.331,34.25z M44.428,29.266H30.975l-0.152-0.227c-0.784-1.179-2.121-1.91-3.491-1.91
			c-1.391,0-2.696,0.715-3.494,1.91l-0.151,0.227h-6.404V5.679h27.146V29.266z M45.762,12.805l6.096-0.082l6.123,7.998H45.762
			V12.805z M52.25,34.25c-1.616,0-2.93-1.281-2.93-2.857s1.313-2.858,2.93-2.858c1.549,0,2.857,1.31,2.857,2.858
			C55.107,32.995,53.854,34.25,52.25,34.25z M58.667,29.266h-2.771l-0.151-0.221c-0.832-1.219-2.106-1.916-3.495-1.916
			c-1.391,0-2.691,0.701-3.575,1.926l-0.151,0.211h-2.762v-7.211h12.905V29.266z"/>
		<path fill="#515151" d="M10.171,16.805h-7.12c-0.345,0-0.701,0.264-0.701,0.703c0,0.342,0.321,0.631,0.701,0.631h7.121
			c0.38,0,0.701-0.289,0.701-0.631C10.873,17.068,10.516,16.805,10.171,16.805z"/>
		<path fill="#515151" d="M10.171,22.717H5.4c-0.341,0-0.629,0.32-0.629,0.701S5.059,24.12,5.4,24.12h4.771
			c0.36,0,0.701-0.342,0.701-0.702C10.873,23.057,10.532,22.717,10.171,22.717z"/>
		<path fill="#515151" d="M10.171,10.896H0.702C0.289,10.896,0,11.155,0,11.527c0,0.345,0.262,0.702,0.702,0.702h9.469
			c0.36,0,0.701-0.342,0.701-0.702C10.873,11.185,10.552,10.896,10.171,10.896z"/>
	</g>
</g>
</svg>
