<?xml version="1.0" encoding="utf-8"?>
<!-- Generator: Adobe Illustrator 16.0.0, SVG Export Plug-In . SVG Version: 6.00 Build 0)  -->
<!DOCTYPE svg PUBLIC "-//W3C//DTD SVG 1.1//EN" "http://www.w3.org/Graphics/SVG/1.1/DTD/svg11.dtd">
<svg version="1.1" id="Layer_1" xmlns="http://www.w3.org/2000/svg" xmlns:xlink="http://www.w3.org/1999/xlink" x="0px" y="0px"
	 width="60px" height="40px" viewBox="0 0 60 40" enable-background="new 0 0 60 40" xml:space="preserve">
<g id="Layer_4">
	<g>
		<polygon fill="#515151" points="29.034,40.025 29.034,40.021 29.034,40.021 		"/>
		<path fill="#515151" d="M29.443,39.366h15.24c2.237-0.002,4.059-1.824,4.057-4.064c0-0.181-0.012-0.36-0.035-0.542l-1.965-14.394
			c-0.027-0.19-0.192-0.337-0.385-0.339h-4.16L40.728,9.271c-0.026-0.193-0.192-0.34-0.39-0.34h-6.149V6.413
			c-0.004-3.544-2.893-6.434-6.437-6.438c-3.546,0.004-6.436,2.894-6.441,6.439v2.509h-6.147c-0.197,0-0.364,0.147-0.389,0.343
			l-3.476,25.495c-0.3,2.218,1.259,4.267,3.479,4.567c0.179,0.025,0.359,0.038,0.542,0.038l13.717,0.004v0.651l0,0l0.028-0.652
			L29.443,39.366z M22.095,6.413c0.088-3.1,2.571-5.512,5.651-5.512l0.166,0.001c2.991,0.088,5.403,2.499,5.489,5.492v2.527H22.095
			V6.413z M15.316,38.58c-1.806-0.001-3.272-1.473-3.271-3.275c0-0.146,0.011-0.293,0.028-0.438l3.435-25.161h24.486l1.407,10.321
			H27.773c-0.196,0-0.364,0.146-0.392,0.339l-1.96,14.395c-0.131,0.98,0.1,1.976,0.65,2.8l0.684,1.021L15.316,38.58L15.316,38.58z
			 M26.169,35.305c0-0.146,0.012-0.293,0.03-0.438l1.915-14.059h17.892l1.912,14.043c0.123,0.862-0.1,1.725-0.625,2.424
			c-0.527,0.697-1.292,1.149-2.158,1.271c-0.152,0.02-0.301,0.031-0.447,0.032H29.443C27.636,38.579,26.169,37.107,26.169,35.305z"
			/>
		<path fill="#515151" d="M37.06,31.389c2.625-0.004,4.762-2.142,4.766-4.766v-0.841c0-0.218-0.176-0.394-0.393-0.394
			c-0.218,0-0.395,0.176-0.395,0.394v0.841c0,2.191-1.785,3.979-3.979,3.979c-1.063,0-2.063-0.414-2.813-1.166
			c-0.752-0.752-1.166-1.75-1.166-2.813v-0.841c0-0.218-0.176-0.394-0.395-0.394c-0.217,0-0.394,0.176-0.394,0.394v0.841
			C32.297,29.247,34.435,31.385,37.06,31.389z"/>
		<circle fill="#515151" cx="22.618" cy="15.03" r="0.75"/>
		<circle fill="#515151" cx="32.886" cy="15.03" r="0.75"/>
	</g>
</g>
</svg>
