<?xml version="1.0" encoding="utf-8"?>
<!-- Generator: Adobe Illustrator 16.0.0, SVG Export Plug-In . SVG Version: 6.00 Build 0)  -->
<!DOCTYPE svg PUBLIC "-//W3C//DTD SVG 1.1//EN" "http://www.w3.org/Graphics/SVG/1.1/DTD/svg11.dtd">
<svg version="1.1" id="Layer_1" xmlns="http://www.w3.org/2000/svg" xmlns:xlink="http://www.w3.org/1999/xlink" x="0px" y="0px"
	 width="67px" height="67px" viewBox="0 0 67 67" enable-background="new 0 0 67 67" xml:space="preserve">
<g>
	<circle fill="#139FDA" cx="33.5" cy="33.5" r="32.918"/>
	<circle fill="#19ABDD" cx="33.613" cy="33.5" r="29.788"/>
	<linearGradient id="SVGID_1_" gradientUnits="userSpaceOnUse" x1="28.2881" y1="32.2451" x2="52.2803" y2="54.0349">
		<stop  offset="5.016000e-004" style="stop-color:#35A3BC"/>
		<stop  offset="0.0103" style="stop-color:#339EB6;stop-opacity:0.9902"/>
		<stop  offset="0.0882" style="stop-color:#27798C;stop-opacity:0.9122"/>
		<stop  offset="0.1726" style="stop-color:#1D5866;stop-opacity:0.8278"/>
		<stop  offset="0.2625" style="stop-color:#143D46;stop-opacity:0.7378"/>
		<stop  offset="0.3595" style="stop-color:#0D272D;stop-opacity:0.6408"/>
		<stop  offset="0.4664" style="stop-color:#071519;stop-opacity:0.5338"/>
		<stop  offset="0.5884" style="stop-color:#03090B;stop-opacity:0.4118"/>
		<stop  offset="0.7386" style="stop-color:#010202;stop-opacity:0.2616"/>
		<stop  offset="1" style="stop-color:#000000;stop-opacity:0"/>
	</linearGradient>
	<path opacity="0.3" fill="url(#SVGID_1_)" d="M15.883,48.569L33.68,66.417c0,0,26.659,0.638,32.338-27.412L43.744,17.008
		l1.585,5.77l0.348,4.81l-0.116,6.259l0.116,4.173l-18.719-0.521l-1.333-0.116l-0.231,0.116l4.926,3.593l3.303,0.231l1.564,0.348
		c0,0,0.813,0.058,0.986,0.116c0.174,0.058,1.391,0.464,1.391,0.464l0.695,0.174l0.695,0.348l1.391-0.174l3.13-0.29l1.738-0.231
		l1.392,0.348l0.058,0.579c0,0-0.174,1.043-0.29,1.217s-0.928,0.812-0.928,0.812l-1.564,0.869l-2.84,0.928l-3.709,2.376
		l-2.955,0.869l-1.449,0.232l-4.23-1.044l-5.1-1.391c0,0,0.174-0.231-0.174,0.174c-0.348,0.406-1.217,0.754-1.217,0.754
		s-0.927,0.058-1.275,0.058c-0.348,0-2.144-0.231-2.144-0.231L15.883,48.569z"/>
	<g>
		<path fill-rule="evenodd" clip-rule="evenodd" fill="#FFFFFF" d="M43.744,17.008c0.202,0.209,0.472,0.385,0.598,0.632
			c0.821,1.616,1.618,3.245,2.405,4.878c0.111,0.231,0.176,0.509,0.176,0.766c0.011,4.538,0.009,9.076,0.007,13.613
			c0,0.743-0.244,0.985-0.984,0.985c-6.608,0.001-13.217,0.001-19.827,0c-0.738,0-0.986-0.245-0.986-0.983
			c-0.001-4.549-0.004-9.099,0.007-13.648c0.001-0.256,0.071-0.533,0.183-0.765c0.783-1.623,1.574-3.241,2.392-4.846
			c0.126-0.248,0.396-0.423,0.599-0.632C33.456,17.008,38.6,17.008,43.744,17.008z M26.651,36.361c6.261,0,12.491,0,18.739,0
			c0-4.197,0-8.376,0-12.554c-1.936,0-3.848,0-5.778,0c0,0.246,0,0.466,0,0.687c0,0.849,0.001,1.698,0,2.547
			c-0.001,0.364-0.119,0.664-0.482,0.811c-0.366,0.147-0.655,0.011-0.904-0.259c-0.1-0.107-0.202-0.213-0.237-0.25
			c-0.367,0.206-0.693,0.532-1.014,0.528c-0.333-0.005-0.662-0.331-0.947-0.491c-0.297,0.167-0.621,0.494-0.942,0.491
			c-0.333-0.003-0.662-0.328-1.041-0.538c-0.035,0.04-0.119,0.137-0.202,0.233c-0.249,0.287-0.542,0.438-0.925,0.286
			c-0.386-0.152-0.479-0.472-0.479-0.846c0.002-0.721,0.001-1.442,0.001-2.163c0-0.345,0-0.69,0-1.037c-1.954,0-3.866,0-5.787,0
			C26.651,27.993,26.651,32.155,26.651,36.361z M33.229,18.568c-0.078-0.028-0.099-0.042-0.12-0.042
			c-1.325-0.004-2.649-0.011-3.974,0.001c-0.103,0.001-0.248,0.117-0.298,0.217c-0.56,1.109-1.106,2.225-1.653,3.339
			c-0.023,0.047-0.03,0.103-0.047,0.164c1.817,0,3.613,0,5.427,0C32.788,21.01,33.009,19.792,33.229,18.568z M39.491,22.247
			c1.85,0,3.632,0,5.444,0c-0.031-0.082-0.049-0.136-0.073-0.186c-0.544-1.104-1.094-2.205-1.628-3.313
			c-0.093-0.193-0.216-0.236-0.409-0.235c-1.22,0.006-2.439,0.003-3.659,0.004c-0.102,0-0.203,0.014-0.346,0.024
			C39.048,19.794,39.27,21.02,39.491,22.247z M34.764,18.536c-0.223,1.24-0.441,2.465-0.664,3.709c1.308,0,2.568,0,3.863,0
			c-0.228-1.257-0.45-2.485-0.672-3.709C36.431,18.536,35.608,18.536,34.764,18.536z M33.968,25.425
			c0.351,0.031,0.351,0.031,1.053,0.572c0.35-0.193,0.675-0.516,0.996-0.512c0.337,0.004,0.67,0.322,1.038,0.521
			c0.271-0.235,0.501-0.677,1.027-0.555c0-0.588,0-1.116,0-1.652c-1.382,0-2.738,0-4.114,0
			C33.968,24.345,33.968,24.874,33.968,25.425z"/>
		<path fill-rule="evenodd" clip-rule="evenodd" fill="#FFFFFF" d="M15.883,38.235c0.249-0.444,0.625-0.576,1.128-0.568
			c1.604,0.025,3.209,0.01,4.814,0.01c1.068,0,1.541,0.331,1.92,1.381c0.209,0,0.439,0.014,0.667-0.002
			c2.078-0.149,4.029,0.313,5.918,1.149c1.02,0.451,2.097,0.652,3.227,0.592c0.834-0.045,1.673-0.001,2.511-0.011
			c0.955-0.012,1.745,0.312,2.348,1.073c0.059,0.073,0.218,0.12,0.315,0.102c1.939-0.37,3.877-0.745,5.813-1.133
			c1.352-0.271,2.579,0.508,2.901,1.859c0.018,0.076,0.045,0.15,0.067,0.226c0,0.187,0,0.373,0,0.56
			c-0.229,1.07-0.916,1.668-1.897,2.123c-3.21,1.485-6.381,3.055-9.573,4.577c-0.653,0.312-1.336,0.562-2.005,0.841
			c-0.326,0-0.652,0-0.978,0c-0.556-0.109-1.133-0.159-1.665-0.34c-2.086-0.711-4.155-1.471-6.237-2.195
			c-0.424-0.147-0.871-0.231-1.313-0.318c-0.092-0.018-0.254,0.052-0.305,0.132c-0.387,0.611-0.937,0.851-1.649,0.844
			c-1.639-0.017-3.279-0.021-4.917,0.004c-0.496,0.007-0.852-0.14-1.091-0.57c0-0.163,0-0.326,0-0.489
			c0.219-0.453,0.582-0.627,1.077-0.584c0.266,0.023,0.534,0.005,0.802,0.005c0.532,0,1.064,0,1.615,0c0-2.745,0-5.447,0-8.191
			c-0.82,0-1.62-0.019-2.419,0.007c-0.495,0.016-0.857-0.138-1.074-0.593C15.883,38.562,15.883,38.398,15.883,38.235z
			 M23.772,40.706c-0.011,0.052-0.029,0.095-0.029,0.139c-0.002,1.803,0,3.606-0.008,5.41c-0.001,0.232,0.128,0.247,0.302,0.28
			c0.511,0.101,1.035,0.174,1.523,0.343c1.273,0.439,2.521,0.951,3.797,1.383c1.13,0.383,2.273,0.736,3.43,1.026
			c0.539,0.136,1.114,0.148,1.665-0.135c1.425-0.732,2.861-1.446,4.307-2.139c2.2-1.053,4.411-2.083,6.619-3.122
			c0.373-0.175,0.551-0.533,0.453-0.917c-0.09-0.352-0.435-0.588-0.823-0.555c-0.139,0.013-0.274,0.05-0.411,0.076
			c-1.825,0.354-3.65,0.703-5.474,1.067c-0.121,0.024-0.284,0.132-0.321,0.239c-0.419,1.207-1.345,1.898-2.627,1.894
			c-1.629-0.005-3.257-0.031-4.885-0.055c-0.512-0.007-0.567,0.033-0.594,0.528c-0.025,0.472-0.346,0.795-0.794,0.802
			c-0.464,0.008-0.804-0.321-0.829-0.804c-0.071-1.35,0.818-2.191,2.222-2.16c1.628,0.036,3.257,0.033,4.886,0.045
			c0.115,0.001,0.234-0.008,0.347-0.035c0.42-0.101,0.674-0.403,0.661-0.778c-0.016-0.491-0.391-0.812-0.984-0.813
			c-1.14-0.003-2.28,0.013-3.42,0.006c-1.257-0.009-2.42-0.428-3.564-0.887c-1.214-0.487-2.427-0.93-3.771-0.845
			C24.897,40.735,24.339,40.706,23.772,40.706z M22.077,47.484c0-2.739,0-5.441,0-8.146c-0.353,0-0.682,0-1.009,0
			c0,2.729,0,5.43,0,8.146C21.413,47.484,21.734,47.484,22.077,47.484z"/>
	</g>
</g>
<rect y="4.022" fill="#FF002B" width="37.833" height="16.65"/>
<g>
	<path fill="#FFFFFF" d="M13.344,16.144h-2.18l-3.52-6.121h-0.05c0.07,1.081,0.105,1.852,0.105,2.313v3.808H6.167V8.053h2.164
		l3.514,6.06h0.039c-0.055-1.051-0.083-1.794-0.083-2.23v-3.83h1.544V16.144z"/>
	<path fill="#FFFFFF" d="M20.041,16.144h-4.66V8.053h4.66v1.406h-2.944v1.776h2.739v1.406h-2.739v2.086h2.944V16.144z"/>
	<path fill="#FFFFFF" d="M29.608,16.144h-1.954l-1.096-4.25c-0.041-0.151-0.109-0.464-0.207-0.938
		c-0.099-0.475-0.155-0.792-0.169-0.955c-0.022,0.199-0.078,0.519-0.166,0.96c-0.089,0.441-0.156,0.755-0.205,0.943l-1.09,4.239
		h-1.948L20.71,8.053h1.688l1.035,4.416c0.182,0.815,0.312,1.522,0.393,2.12c0.022-0.21,0.073-0.536,0.151-0.977
		c0.08-0.441,0.155-0.783,0.225-1.027l1.179-4.532h1.622l1.179,4.532c0.051,0.203,0.116,0.513,0.194,0.93
		c0.077,0.417,0.136,0.775,0.177,1.074c0.037-0.288,0.097-0.646,0.177-1.076c0.081-0.43,0.155-0.778,0.221-1.043l1.029-4.416h1.688
		L29.608,16.144z"/>
</g>
</svg>
