<?xml version="1.0" encoding="utf-8"?>
<!-- Generator: Adobe Illustrator 16.0.0, SVG Export Plug-In . SVG Version: 6.00 Build 0)  -->
<!DOCTYPE svg PUBLIC "-//W3C//DTD SVG 1.1//EN" "http://www.w3.org/Graphics/SVG/1.1/DTD/svg11.dtd">
<svg version="1.1" xmlns="http://www.w3.org/2000/svg" xmlns:xlink="http://www.w3.org/1999/xlink" x="0px" y="0px" width="30px"
	 height="30px" viewBox="0 0 30 30" enable-background="new 0 0 30 30" xml:space="preserve">
<g id="Layer_5" display="none">
	<rect x="-0.5" y="-0.5" display="inline" fill="#FF7E0D" width="32" height="32"/>
</g>
<g id="Layer_1" display="none">
	<g display="inline">
		<path fill="none" stroke="#FFFFFF" stroke-miterlimit="10" d="M9.4,23.4c-1.54,0-2.786,1.26-2.786,2.8
			c0,1.539,1.247,2.8,2.786,2.8s2.8-1.261,2.8-2.8C12.2,24.66,10.939,23.4,9.4,23.4z M1,1v2.8h2.8l5.04,10.626L6.95,17.856
			C6.726,18.248,6.6,18.711,6.6,19.2c0,1.539,1.26,2.8,2.8,2.8h16.8v-2.8H9.988c-0.197,0-0.35-0.153-0.35-0.351l0.042-0.168
			l1.259-2.281H21.37c1.05,0,1.974-0.574,2.449-1.442l5.013-9.086C28.944,5.676,29,5.438,29,5.2c0-0.77-0.63-1.4-1.4-1.4H6.894
			L5.577,1H1z M23.4,23.4c-1.54,0-2.787,1.26-2.787,2.8c0,1.539,1.247,2.8,2.787,2.8c1.539,0,2.8-1.261,2.8-2.8
			C26.2,24.66,24.939,23.4,23.4,23.4z"/>
	</g>
</g>
<g id="Layer_4" display="none">
	<g display="inline">
		<g>
			<path fill="#FFFFFF" d="M19.718,17.45l0.062,0.892c4.847,0,8.805-3.958,8.805-8.824c0-4.85-3.958-9.094-8.805-9.094
				c-2.735,0-4.878,1.167-6.366,2.763l0.839,0.531c1.434-1.429,3.387-2.434,5.526-2.434c4.385,0,7.944,3.704,7.944,8.09
				c0,4.386-3.56,8.035-7.944,8.035"/>
		</g>
		<g>
			<path fill="#FFFFFF" d="M16.35,9.856H6.296V7.27c0-2.771,2.255-5.026,5.027-5.026c2.771,0,5.026,2.255,5.026,5.026V9.856z
				 M7.156,8.997h8.334V7.27c0-2.297-1.87-4.167-4.167-4.167c-2.298,0-4.167,1.87-4.167,4.167V8.997z"/>
		</g>
		<g>
			<path fill="#FFFFFF" d="M19.088,28.941H3.559c-0.421,0-0.833-0.201-1.163-0.566c-0.554-0.612-0.838-1.617-0.737-2.621
				l1.535-15.612C3.193,9.508,3.658,8.959,4.23,8.959h14.186c0.583,0,1.04,0.553,1.04,1.258l1.533,15.538
				c0.099,1.003-0.187,2.008-0.742,2.622C19.92,28.74,19.509,28.941,19.088,28.941z M4.23,9.819c-0.06,0-0.178,0.142-0.178,0.365
				L2.516,25.839c-0.078,0.758,0.127,1.526,0.521,1.96c0.116,0.131,0.299,0.282,0.522,0.282h15.529c0.223,0,0.405-0.151,0.52-0.28
				c0.395-0.436,0.601-1.204,0.524-1.962l-1.535-15.58c-0.001-0.301-0.128-0.44-0.181-0.44h-1.385v1.894
				c0,0.424-0.346,0.77-0.771,0.77c-0.424,0-0.77-0.346-0.77-0.77V9.819H7.155v1.894c0,0.424-0.344,0.77-0.769,0.77
				c-0.425,0-0.771-0.346-0.771-0.77V9.819H4.23z"/>
		</g>
	</g>
</g>
<g id="Layer_3">
	<g>
		<path fill="none" stroke="#FFFFFF" stroke-miterlimit="10" d="M11.05,29c0.55,0,1-0.45,1-1v-6.851c0-0.55,0.45-1,1-1h3.9
			c0.55,0,1,0.45,1,1V28c0,0.55,0.45,1,1,1h5.375c0.55,0,1-0.45,1-1v-9.8c0-0.55,0.45-1,1-1h2.425c0.55,0,0.666-0.301,0.257-0.669
			L15.743,4.593c-0.409-0.368-1.078-0.368-1.486,0L0.993,16.531C0.584,16.899,0.7,17.2,1.25,17.2h2.425c0.55,0,1,0.45,1,1V28
			c0,0.55,0.45,1,1,1H11.05z"/>
	</g>
</g>
<g id="Layer_2" display="none">
	<path display="inline" fill="none" stroke="#FFFFFF" stroke-miterlimit="10" d="M-34.24,19.553c3.332,0,6.028-2.699,6.028-6.03
		s-2.696-6.029-6.028-6.029c-3.33,0-6.029,2.698-6.029,6.029S-37.57,19.553-34.24,19.553z M-34.24,22.566
		c-4.025,0-12.059,2.02-12.059,6.029v3.016h24.117v-3.016C-22.181,24.586-30.216,22.566-34.24,22.566z"/>
	<g display="inline">
		<path fill="none" stroke="#FFFFFF" stroke-miterlimit="10" d="M9.666,22.238l4.572-4.479c-0.596-0.061-1.035-0.093-1.524-0.093
			c-4.07,0-12.19,2.043-12.19,6.095v3.047h13.714L9.666,22.238z M12.714,14.618c3.368,0,6.098-2.727,6.098-6.094
			c0-3.368-2.729-6.096-6.098-6.096c-3.368,0-6.095,2.728-6.095,6.096C6.619,11.892,9.346,14.618,12.714,14.618"/>
		<path fill="none" stroke="#FFFFFF" stroke-miterlimit="10" d="M19.527,27.571l-5.29-5.333l2.135-2.149l3.154,3.169l7.815-7.876
			l2.134,2.149L19.527,27.571z"/>
	</g>
</g>
</svg>
