<?xml version="1.0" encoding="utf-8"?>
<!-- Generator: Adobe Illustrator 16.0.0, SVG Export Plug-In . SVG Version: 6.00 Build 0)  -->
<!DOCTYPE svg PUBLIC "-//W3C//DTD SVG 1.1//EN" "http://www.w3.org/Graphics/SVG/1.1/DTD/svg11.dtd">
<svg version="1.1" id="Layer_1" xmlns="http://www.w3.org/2000/svg" xmlns:xlink="http://www.w3.org/1999/xlink" x="0px" y="0px"
	 width="20px" height="20px" viewBox="0 0 20 20" enable-background="new 0 0 20 20" xml:space="preserve">
<path fill="none" d="M-2-2h24v24H-2V-2z"/>
<path fill="none" d="M-2-4h24v24H-2V-4z"/>
<path fill="#181818" d="M16,14.121c-0.76,0-1.439,0.299-1.96,0.77l-7.13-4.149C6.96,10.512,7,10.28,7,10.041
	c0-0.24-0.04-0.471-0.09-0.7l7.05-4.11c0.54,0.5,1.25,0.811,2.04,0.811c1.66,0,3-1.34,3-3s-1.34-3-3-3s-3,1.34-3,3
	c0,0.239,0.04,0.47,0.09,0.7L6.04,7.851C5.5,7.351,4.79,7.041,4,7.041c-1.66,0-3,1.34-3,3s1.34,3,3,3c0.79,0,1.5-0.311,2.04-0.811
	l7.12,4.16c-0.051,0.211-0.08,0.43-0.08,0.647c0,1.608,1.311,2.92,2.92,2.92s2.92-1.312,2.92-2.92
	C18.92,15.432,17.609,14.121,16,14.121z"/>
</svg>
