<?xml version="1.0" encoding="utf-8"?>
<!-- Generator: Adobe Illustrator 16.0.0, SVG Export Plug-In . SVG Version: 6.00 Build 0)  -->
<!DOCTYPE svg PUBLIC "-//W3C//DTD SVG 1.1//EN" "http://www.w3.org/Graphics/SVG/1.1/DTD/svg11.dtd">
<svg version="1.1" id="Layer_1" xmlns="http://www.w3.org/2000/svg" xmlns:xlink="http://www.w3.org/1999/xlink" x="0px" y="0px"
	 width="40px" height="40px" viewBox="0 0 40 40" enable-background="new 0 0 40 40" xml:space="preserve">
<g>
	<path d="M38.807,29.936c-0.076,0.914-1.143,1.105-1.143,1.105L2.049,31.117c-0.724,0-0.877-0.992-0.877-0.992l0.039-3.127
		l37.598-0.152v3.09H38.807z"/>
	<path d="M15.885,31.131l-0.381,3.158c0,0-2.226,2.086-1.658,2.037c0,0,12.24,0.037,12.369-0.035s-1.477-2.012-1.477-2.012
		s-0.654-3.004-0.73-3.103C23.932,31.082,15.885,31.131,15.885,31.131z"/>
	<path d="M38.891,4.522c-0.047-0.773-0.496-0.858-0.762-0.858H1.644C1.11,3.741,1.096,4.503,1.096,4.503L1.21,26.998l37.597-0.15
		C38.807,26.846,38.947,5.495,38.891,4.522z M20.003,4.503c0.082,0,0.149,0.067,0.149,0.15s-0.067,0.15-0.149,0.15
		c-0.083,0-0.15-0.067-0.15-0.15S19.921,4.503,20.003,4.503z M37.359,25.016H2.964L2.888,5.495h34.471V25.016z"/>
</g>
</svg>
