<?xml version="1.0" encoding="utf-8"?>
<!-- Generator: Adobe Illustrator 16.0.0, SVG Export Plug-In . SVG Version: 6.00 Build 0)  -->
<!DOCTYPE svg PUBLIC "-//W3C//DTD SVG 1.1//EN" "http://www.w3.org/Graphics/SVG/1.1/DTD/svg11.dtd">
<svg version="1.1" id="Layer_1" xmlns="http://www.w3.org/2000/svg" xmlns:xlink="http://www.w3.org/1999/xlink" x="0px" y="0px"
	 width="40px" height="40px" viewBox="0 0 40 40" enable-background="new 0 0 40 40" xml:space="preserve">
<g>
	<path fill="#FFFFFF" d="M-43.193,29.936c-0.076,0.914-1.143,1.105-1.143,1.105l-35.615,0.076c-0.724,0-0.877-0.992-0.877-0.992
		l0.039-3.127l37.597-0.152L-43.193,29.936L-43.193,29.936z"/>
	<path fill="#FFFFFF" d="M-66.115,31.131l-0.381,3.158c0,0-2.226,2.086-1.658,2.037c0,0,12.24,0.037,12.369-0.035
		c0.129-0.072-1.477-2.012-1.477-2.012s-0.654-3.004-0.73-3.103C-58.068,31.082-66.115,31.131-66.115,31.131z"/>
	<path fill="#FFFFFF" d="M-43.109,4.522c-0.047-0.773-0.496-0.858-0.762-0.858h-36.485c-0.534,0.076-0.548,0.838-0.548,0.838
		l0.114,22.495l37.597-0.149C-43.193,26.846-43.053,5.495-43.109,4.522z M-61.997,4.503c0.082,0,0.149,0.067,0.149,0.15
		s-0.067,0.15-0.149,0.15c-0.083,0-0.15-0.067-0.15-0.15S-62.079,4.503-61.997,4.503z M-44.641,25.016h-34.396l-0.076-19.521h34.471
		L-44.641,25.016L-44.641,25.016z"/>
</g>
<g>
	<path d="M0.322,35.189v-1.15c0-6.102,4.947-11.047,11.048-11.047h17.261c6.102,0,11.047,4.945,11.047,11.047v1.15"/>
	<circle cx="20" cy="13.153" r="8.343"/>
</g>
</svg>
