<?xml version="1.0" encoding="utf-8"?>
<!-- Generator: Adobe Illustrator 16.0.0, SVG Export Plug-In . SVG Version: 6.00 Build 0)  -->
<!DOCTYPE svg PUBLIC "-//W3C//DTD SVG 1.1//EN" "http://www.w3.org/Graphics/SVG/1.1/DTD/svg11.dtd">
<svg version="1.1"
	 id="Layer_1" xmlns:sodipodi="http://sodipodi.sourceforge.net/DTD/sodipodi-0.dtd" xmlns:svg="http://www.w3.org/2000/svg" xmlns:inkscape="http://www.inkscape.org/namespaces/inkscape" xmlns:dc="http://purl.org/dc/elements/1.1/" xmlns:cc="http://creativecommons.org/ns#" xmlns:rdf="http://www.w3.org/1999/02/22-rdf-syntax-ns#"
	 xmlns="http://www.w3.org/2000/svg" xmlns:xlink="http://www.w3.org/1999/xlink" x="0px" y="0px" width="25px" height="25px"
	 viewBox="412.695 86.715 25 25" enable-background="new 412.695 86.715 25 25" xml:space="preserve">
<g>
	<g transform="translate(0,-952.36218)">
		<path fill="#FFFFFF" d="M425.195,1039.318c-6.768,0-12.26,5.493-12.26,12.26c0,6.769,5.492,12.26,12.26,12.26
			s12.261-5.491,12.261-12.26C437.456,1044.811,431.963,1039.318,425.195,1039.318z M425.195,1039.888
			c6.46,0,11.691,5.23,11.691,11.689c0,6.46-5.23,11.69-11.691,11.69c-6.459,0-11.69-5.23-11.69-11.69
			C413.505,1045.118,418.735,1039.888,425.195,1039.888z"/>
	</g>
	<g>
		<path fill="#FFFFFF" d="M430.377,95.849l-6.482,6.448c-0.035,0.036-0.105,0.036-0.14,0l-2.698-2.698
			c-0.28-0.281-0.701-0.281-0.981,0s-0.28,0.701,0,0.981l2.698,2.698c0.28,0.28,0.666,0.456,1.051,0.456
			c0.42,0,0.771-0.141,1.052-0.456l6.482-6.482c0.281-0.28,0.281-0.7,0-0.981C431.079,95.535,430.658,95.57,430.377,95.849z"/>
	</g>
</g>
</svg>
